<svg class="main-svg" xmlns="http://www.w3.org/2000/svg" xmlns:xlink="http://www.w3.org/1999/xlink" width="1200" height="600" style="" viewBox="0 0 1200 600"><rect x="0" y="0" width="1200" height="600" style="fill: rgb(255, 255, 255); fill-opacity: 1;"/><defs id="defs-09cb1d"><g class="clips"><clipPath id="clip09cb1dxyplot" class="plotclip"><rect width="1070" height="453"/></clipPath><clipPath class="axesclip" id="clip09cb1dx"><rect x="70" y="0" width="1070" height="600"/></clipPath><clipPath class="axesclip" id="clip09cb1dy"><rect x="0" y="80" width="1200" height="453"/></clipPath><clipPath class="axesclip" id="clip09cb1dxy"><rect x="70" y="80" width="1070" height="453"/></clipPath></g><g class="gradients"/><g class="patterns"/></defs><g class="bglayer"/><g class="layer-below"><g class="imagelayer"/><g class="shapelayer"/></g><g class="cartesianlayer"><g class="subplot xy"><g class="layer-subplot"><g class="shapelayer"/><g class="imagelayer"/></g><g class="minor-gridlayer"><g class="x"/><g class="y"/></g><g class="gridlayer"><g class="x"><path class="xgrid crisp" transform="translate(98.16,0)" d="M0,80v453" style="stroke: rgb(224, 224, 224); stroke-opacity: 1; stroke-width: 1px;"/><path class="xgrid crisp" transform="translate(238.95,0)" d="M0,80v453" style="stroke: rgb(224, 224, 224); stroke-opacity: 1; stroke-width: 1px;"/><path class="xgrid crisp" transform="translate(379.74,0)" d="M0,80v453" style="stroke: rgb(224, 224, 224); stroke-opacity: 1; stroke-width: 1px;"/><path class="xgrid crisp" transform="translate(520.53,0)" d="M0,80v453" style="stroke: rgb(224, 224, 224); stroke-opacity: 1; stroke-width: 1px;"/><path class="xgrid crisp" transform="translate(661.32,0)" d="M0,80v453" style="stroke: rgb(224, 224, 224); stroke-opacity: 1; stroke-width: 1px;"/><path class="xgrid crisp" transform="translate(802.11,0)" d="M0,80v453" style="stroke: rgb(224, 224, 224); stroke-opacity: 1; stroke-width: 1px;"/><path class="xgrid crisp" transform="translate(942.89,0)" d="M0,80v453" style="stroke: rgb(224, 224, 224); stroke-opacity: 1; stroke-width: 1px;"/><path class="xgrid crisp" transform="translate(1083.6799999999998,0)" d="M0,80v453" style="stroke: rgb(224, 224, 224); stroke-opacity: 1; stroke-width: 1px;"/></g><g class="y"><path class="ygrid crisp" transform="translate(0,459.6)" d="M70,0h1070" style="stroke: rgb(224, 224, 224); stroke-opacity: 1; stroke-width: 1px;"/><path class="ygrid crisp" transform="translate(0,408.83)" d="M70,0h1070" style="stroke: rgb(224, 224, 224); stroke-opacity: 1; stroke-width: 1px;"/><path class="ygrid crisp" transform="translate(0,358.05)" d="M70,0h1070" style="stroke: rgb(224, 224, 224); stroke-opacity: 1; stroke-width: 1px;"/><path class="ygrid crisp" transform="translate(0,307.28)" d="M70,0h1070" style="stroke: rgb(224, 224, 224); stroke-opacity: 1; stroke-width: 1px;"/><path class="ygrid crisp" transform="translate(0,256.51)" d="M70,0h1070" style="stroke: rgb(224, 224, 224); stroke-opacity: 1; stroke-width: 1px;"/><path class="ygrid crisp" transform="translate(0,205.73000000000002)" d="M70,0h1070" style="stroke: rgb(224, 224, 224); stroke-opacity: 1; stroke-width: 1px;"/><path class="ygrid crisp" transform="translate(0,154.95999999999998)" d="M70,0h1070" style="stroke: rgb(224, 224, 224); stroke-opacity: 1; stroke-width: 1px;"/><path class="ygrid crisp" transform="translate(0,104.19)" d="M70,0h1070" style="stroke: rgb(224, 224, 224); stroke-opacity: 1; stroke-width: 1px;"/></g></g><g class="zerolinelayer"><path class="yzl zl crisp" transform="translate(0,510.37)" d="M70,0h1070" style="stroke: rgb(255, 255, 255); stroke-opacity: 1; stroke-width: 2px;"/></g><g class="layer-between"><g class="shapelayer"/><g class="imagelayer"/></g><path class="xlines-below"/><path class="ylines-below"/><g class="overlines-below"/><g class="xaxislayer-below"/><g class="yaxislayer-below"/><g class="overaxes-below"/><g class="overplot"><g class="xy" transform="translate(70,80)" clip-path="url(#clip09cb1dxyplot)"><g class="barlayer mlayer"><g class="trace bars" shape-rendering="crispEdges" style="opacity: 0.7;"><g class="points"><g class="point"><path d="M0,430.37V429.73H28.16V430.37Z" style="vector-effect: none; opacity: 1; stroke-width: 0px; fill: rgb(74, 144, 217); fill-opacity: 1;"/></g><g class="point"><path d="M0,0Z" style="vector-effect: none; opacity: 1; stroke-width: 0px; fill: rgb(74, 144, 217); fill-opacity: 1;"/></g><g class="point"><path d="M56.32,430.37V429.73H84.47V430.37Z" style="vector-effect: none; opacity: 1; stroke-width: 0px; fill: rgb(74, 144, 217); fill-opacity: 1;"/></g><g class="point"><path d="M0,0Z" style="vector-effect: none; opacity: 1; stroke-width: 0px; fill: rgb(74, 144, 217); fill-opacity: 1;"/></g><g class="point"><path d="M112.63,430.37V429.73H140.79V430.37Z" style="vector-effect: none; opacity: 1; stroke-width: 0px; fill: rgb(74, 144, 217); fill-opacity: 1;"/></g><g class="point"><path d="M140.79,430.37V420.76H168.95V430.37Z" style="vector-effect: none; opacity: 1; stroke-width: 0px; fill: rgb(74, 144, 217); fill-opacity: 1;"/></g><g class="point"><path d="M168.95,430.37V417.55H197.11V430.37Z" style="vector-effect: none; opacity: 1; stroke-width: 0px; fill: rgb(74, 144, 217); fill-opacity: 1;"/></g><g class="point"><path d="M197.11,430.37V398.96H225.26V430.37Z" style="vector-effect: none; opacity: 1; stroke-width: 0px; fill: rgb(74, 144, 217); fill-opacity: 1;"/></g><g class="point"><path d="M225.26,430.37V373.32H253.42V430.37Z" style="vector-effect: none; opacity: 1; stroke-width: 0px; fill: rgb(74, 144, 217); fill-opacity: 1;"/></g><g class="point"><path d="M253.42,430.37V339.34H281.58V430.37Z" style="vector-effect: none; opacity: 1; stroke-width: 0px; fill: rgb(74, 144, 217); fill-opacity: 1;"/></g><g class="point"><path d="M281.58,430.37V325.24H309.74V430.37Z" style="vector-effect: none; opacity: 1; stroke-width: 0px; fill: rgb(74, 144, 217); fill-opacity: 1;"/></g><g class="point"><path d="M309.74,430.37V234.84H337.89V430.37Z" style="vector-effect: none; opacity: 1; stroke-width: 0px; fill: rgb(74, 144, 217); fill-opacity: 1;"/></g><g class="point"><path d="M337.89,430.37V22.65H366.05V430.37Z" style="vector-effect: none; opacity: 1; stroke-width: 0px; fill: rgb(74, 144, 217); fill-opacity: 1;"/></g><g class="point"><path d="M366.05,430.37V186.12H394.21V430.37Z" style="vector-effect: none; opacity: 1; stroke-width: 0px; fill: rgb(74, 144, 217); fill-opacity: 1;"/></g><g class="point"><path d="M394.21,430.37V284.85H422.37V430.37Z" style="vector-effect: none; opacity: 1; stroke-width: 0px; fill: rgb(74, 144, 217); fill-opacity: 1;"/></g><g class="point"><path d="M422.37,430.37V289.34H450.53V430.37Z" style="vector-effect: none; opacity: 1; stroke-width: 0px; fill: rgb(74, 144, 217); fill-opacity: 1;"/></g><g class="point"><path d="M450.53,430.37V319.47H478.68V430.37Z" style="vector-effect: none; opacity: 1; stroke-width: 0px; fill: rgb(74, 144, 217); fill-opacity: 1;"/></g><g class="point"><path d="M478.68,430.37V312.41H506.84V430.37Z" style="vector-effect: none; opacity: 1; stroke-width: 0px; fill: rgb(74, 144, 217); fill-opacity: 1;"/></g><g class="point"><path d="M506.84,430.37V312.41H535V430.37Z" style="vector-effect: none; opacity: 1; stroke-width: 0px; fill: rgb(74, 144, 217); fill-opacity: 1;"/></g><g class="point"><path d="M535,430.37V313.06H563.16V430.37Z" style="vector-effect: none; opacity: 1; stroke-width: 0px; fill: rgb(74, 144, 217); fill-opacity: 1;"/></g><g class="point"><path d="M563.16,430.37V298.95H591.32V430.37Z" style="vector-effect: none; opacity: 1; stroke-width: 0px; fill: rgb(74, 144, 217); fill-opacity: 1;"/></g><g class="point"><path d="M591.32,430.37V292.54H619.47V430.37Z" style="vector-effect: none; opacity: 1; stroke-width: 0px; fill: rgb(74, 144, 217); fill-opacity: 1;"/></g><g class="point"><path d="M619.47,430.37V304.72H647.63V430.37Z" style="vector-effect: none; opacity: 1; stroke-width: 0px; fill: rgb(74, 144, 217); fill-opacity: 1;"/></g><g class="point"><path d="M647.63,430.37V363.06H675.79V430.37Z" style="vector-effect: none; opacity: 1; stroke-width: 0px; fill: rgb(74, 144, 217); fill-opacity: 1;"/></g><g class="point"><path d="M675.79,430.37V366.91H703.95V430.37Z" style="vector-effect: none; opacity: 1; stroke-width: 0px; fill: rgb(74, 144, 217); fill-opacity: 1;"/></g><g class="point"><path d="M703.95,430.37V385.5H732.11V430.37Z" style="vector-effect: none; opacity: 1; stroke-width: 0px; fill: rgb(74, 144, 217); fill-opacity: 1;"/></g><g class="point"><path d="M732.11,430.37V414.34H760.26V430.37Z" style="vector-effect: none; opacity: 1; stroke-width: 0px; fill: rgb(74, 144, 217); fill-opacity: 1;"/></g><g class="point"><path d="M760.26,430.37V422.68H788.42V430.37Z" style="vector-effect: none; opacity: 1; stroke-width: 0px; fill: rgb(74, 144, 217); fill-opacity: 1;"/></g><g class="point"><path d="M788.42,430.37V422.04H816.58V430.37Z" style="vector-effect: none; opacity: 1; stroke-width: 0px; fill: rgb(74, 144, 217); fill-opacity: 1;"/></g><g class="point"><path d="M816.58,430.37V417.55H844.74V430.37Z" style="vector-effect: none; opacity: 1; stroke-width: 0px; fill: rgb(74, 144, 217); fill-opacity: 1;"/></g><g class="point"><path d="M844.74,430.37V428.45H872.89V430.37Z" style="vector-effect: none; opacity: 1; stroke-width: 0px; fill: rgb(74, 144, 217); fill-opacity: 1;"/></g><g class="point"><path d="M872.89,430.37V423.32H901.05V430.37Z" style="vector-effect: none; opacity: 1; stroke-width: 0px; fill: rgb(74, 144, 217); fill-opacity: 1;"/></g><g class="point"><path d="M901.05,430.37V427.81H929.21V430.37Z" style="vector-effect: none; opacity: 1; stroke-width: 0px; fill: rgb(74, 144, 217); fill-opacity: 1;"/></g><g class="point"><path d="M929.21,430.37V429.73H957.37V430.37Z" style="vector-effect: none; opacity: 1; stroke-width: 0px; fill: rgb(74, 144, 217); fill-opacity: 1;"/></g><g class="point"><path d="M957.37,430.37V427.17H985.53V430.37Z" style="vector-effect: none; opacity: 1; stroke-width: 0px; fill: rgb(74, 144, 217); fill-opacity: 1;"/></g><g class="point"><path d="M0,0Z" style="vector-effect: none; opacity: 1; stroke-width: 0px; fill: rgb(74, 144, 217); fill-opacity: 1;"/></g><g class="point"><path d="M0,0Z" style="vector-effect: none; opacity: 1; stroke-width: 0px; fill: rgb(74, 144, 217); fill-opacity: 1;"/></g><g class="point"><path d="M1041.84,430.37V429.73H1070V430.37Z" style="vector-effect: none; opacity: 1; stroke-width: 0px; fill: rgb(74, 144, 217); fill-opacity: 1;"/></g></g></g></g><g class="scatterlayer mlayer"><g class="trace scatter traceb3f8c5" style="stroke-miterlimit: 2; opacity: 1;"><g class="fills"/><g class="errorbars"/><g class="lines"><path class="js-line" d="M21.12,428.48L62.76,425.88L73.17,424.88L104.4,420.63L114.81,418.71L135.63,413.93L146.04,411.02L166.86,403.97L177.27,399.79L198.09,390.01L208.5,384.38L229.32,371.64L239.73,364.55L260.55,349.04L270.96,340.7L302.19,314.12L312.6,305L343.82,278.2L354.23,269.83L375.05,254.59L385.46,247.95L395.87,242.1L406.28,237.12L416.69,233.1L427.1,230.09L437.51,228.16L447.92,227.33L458.33,227.61L468.74,229L479.15,231.47L489.56,234.99L499.97,239.51L510.38,244.94L531.2,258.2L541.61,265.83L562.43,282.55L572.84,291.42L635.3,344.94L645.71,353.09L666.53,368.17L676.94,375.03L697.76,387.27L708.17,392.65L728.99,401.95L739.4,405.9L760.22,412.53L770.63,415.26L791.45,419.71L801.86,421.49L833.09,425.41L843.5,426.33L885.14,428.68L895.55,429.03L958.01,430.08L968.42,430.15L1051.7,430.35" style="vector-effect: none; fill: none; stroke: rgb(231, 76, 60); stroke-opacity: 1; stroke-width: 3px; opacity: 1;"/></g><g class="points"/><g class="text"/></g></g></g></g><g class="zerolinelayer-above"/><path class="xlines-above crisp" d="M68,534H1140" style="fill: none; stroke-width: 2px; stroke: rgb(204, 204, 204); stroke-opacity: 1;"/><path class="ylines-above crisp" d="M69,80V533" style="fill: none; stroke-width: 2px; stroke: rgb(204, 204, 204); stroke-opacity: 1;"/><g class="overlines-above"/><g class="xaxislayer-above"><g class="xtick"><text text-anchor="middle" x="0" y="554.2" transform="translate(98.16,0)" style="font-family: 'Helvetica Neue'; font-size: 16px; fill: rgb(42, 63, 95); fill-opacity: 1; white-space: pre;">−3</text></g><g class="xtick"><text text-anchor="middle" x="0" y="554.2" style="font-family: 'Helvetica Neue'; font-size: 16px; fill: rgb(42, 63, 95); fill-opacity: 1; white-space: pre;" transform="translate(238.95,0)">−2</text></g><g class="xtick"><text text-anchor="middle" x="0" y="554.2" style="font-family: 'Helvetica Neue'; font-size: 16px; fill: rgb(42, 63, 95); fill-opacity: 1; white-space: pre;" transform="translate(379.74,0)">−1</text></g><g class="xtick"><text text-anchor="middle" x="0" y="554.2" style="font-family: 'Helvetica Neue'; font-size: 16px; fill: rgb(42, 63, 95); fill-opacity: 1; white-space: pre;" transform="translate(520.53,0)">0</text></g><g class="xtick"><text text-anchor="middle" x="0" y="554.2" style="font-family: 'Helvetica Neue'; font-size: 16px; fill: rgb(42, 63, 95); fill-opacity: 1; white-space: pre;" transform="translate(661.32,0)">1</text></g><g class="xtick"><text text-anchor="middle" x="0" y="554.2" style="font-family: 'Helvetica Neue'; font-size: 16px; fill: rgb(42, 63, 95); fill-opacity: 1; white-space: pre;" transform="translate(802.11,0)">2</text></g><g class="xtick"><text text-anchor="middle" x="0" y="554.2" style="font-family: 'Helvetica Neue'; font-size: 16px; fill: rgb(42, 63, 95); fill-opacity: 1; white-space: pre;" transform="translate(942.89,0)">3</text></g><g class="xtick"><text text-anchor="middle" x="0" y="554.2" style="font-family: 'Helvetica Neue'; font-size: 16px; fill: rgb(42, 63, 95); fill-opacity: 1; white-space: pre;" transform="translate(1083.6799999999998,0)">4</text></g></g><g class="yaxislayer-above"><g class="ytick"><text text-anchor="end" x="64.8" y="5.6" transform="translate(0,510.37)" style="font-family: 'Helvetica Neue'; font-size: 16px; fill: rgb(42, 63, 95); fill-opacity: 1; white-space: pre;">0</text></g><g class="ytick"><text text-anchor="end" x="64.8" y="5.6" style="font-family: 'Helvetica Neue'; font-size: 16px; fill: rgb(42, 63, 95); fill-opacity: 1; white-space: pre;" transform="translate(0,459.6)">0.1</text></g><g class="ytick"><text text-anchor="end" x="64.8" y="5.6" style="font-family: 'Helvetica Neue'; font-size: 16px; fill: rgb(42, 63, 95); fill-opacity: 1; white-space: pre;" transform="translate(0,408.83)">0.2</text></g><g class="ytick"><text text-anchor="end" x="64.8" y="5.6" style="font-family: 'Helvetica Neue'; font-size: 16px; fill: rgb(42, 63, 95); fill-opacity: 1; white-space: pre;" transform="translate(0,358.05)">0.3</text></g><g class="ytick"><text text-anchor="end" x="64.8" y="5.6" style="font-family: 'Helvetica Neue'; font-size: 16px; fill: rgb(42, 63, 95); fill-opacity: 1; white-space: pre;" transform="translate(0,307.28)">0.4</text></g><g class="ytick"><text text-anchor="end" x="64.8" y="5.6" style="font-family: 'Helvetica Neue'; font-size: 16px; fill: rgb(42, 63, 95); fill-opacity: 1; white-space: pre;" transform="translate(0,256.51)">0.5</text></g><g class="ytick"><text text-anchor="end" x="64.8" y="5.6" style="font-family: 'Helvetica Neue'; font-size: 16px; fill: rgb(42, 63, 95); fill-opacity: 1; white-space: pre;" transform="translate(0,205.73000000000002)">0.6</text></g><g class="ytick"><text text-anchor="end" x="64.8" y="5.6" style="font-family: 'Helvetica Neue'; font-size: 16px; fill: rgb(42, 63, 95); fill-opacity: 1; white-space: pre;" transform="translate(0,154.95999999999998)">0.7</text></g><g class="ytick"><text text-anchor="end" x="64.8" y="5.6" style="font-family: 'Helvetica Neue'; font-size: 16px; fill: rgb(42, 63, 95); fill-opacity: 1; white-space: pre;" transform="translate(0,104.19)">0.8</text></g></g><g class="overaxes-above"/></g></g><g class="polarlayer"/><g class="smithlayer"/><g class="ternarylayer"/><g class="geolayer"/><g class="funnelarealayer"/><g class="pielayer"/><g class="iciclelayer"/><g class="treemaplayer"/><g class="sunburstlayer"/><g class="glimages"/><defs id="topdefs-09cb1d"><g class="clips"/><clipPath id="legend09cb1d"><rect width="247" height="63" x="0" y="0"/></clipPath></defs><g class="layer-above"><g class="imagelayer"/><g class="shapelayer"/></g><g class="infolayer"><g class="legend" pointer-events="all" transform="translate(91.4,89.06)"><rect class="bg" shape-rendering="crispEdges" style="stroke: rgb(68, 68, 68); stroke-opacity: 1; fill: rgb(255, 255, 255); fill-opacity: 0.8; stroke-width: 0px;" width="247" height="63" x="0" y="0"/><g class="scrollbox" transform="" clip-path="url(#legend09cb1d)"><g class="groups"><g class="traces" transform="translate(0,18.200000000000003)" style="opacity: 1;"><text class="legendtext" text-anchor="start" x="40" y="7.0200000000000005" style="font-family: 'Helvetica Neue'; font-size: 18px; fill: rgb(42, 63, 95); fill-opacity: 1; white-space: pre;">Observed</text><g class="layers" style="opacity: 0.7;"><g class="legendfill"/><g class="legendlines"/><g class="legendsymbols"><g class="legendpoints"><path class="legendundefined" d="M6,6H-6V-6H6Z" transform="translate(20,0)" style="stroke-width: 0px; fill: rgb(74, 144, 217); fill-opacity: 1;"/></g></g></g><rect class="legendtoggle" x="0" y="-13.200000000000001" width="241.515625" height="26.400000000000002" style="fill: rgb(0, 0, 0); fill-opacity: 0;"/></g><g class="traces" transform="translate(0,44.6)" style="opacity: 1;"><text class="legendtext" text-anchor="start" x="40" y="7.0200000000000005" style="font-family: 'Helvetica Neue'; font-size: 18px; fill: rgb(42, 63, 95); fill-opacity: 1; white-space: pre;">Normal (μ=-0.00, σ=1.00)</text><g class="layers" style="opacity: 1;"><g class="legendfill"/><g class="legendlines"><path class="js-line" d="M5,0h30" style="fill: none; stroke: rgb(231, 76, 60); stroke-opacity: 1; stroke-width: 3px;"/></g><g class="legendsymbols"><g class="legendpoints"/></g></g><rect class="legendtoggle" x="0" y="-13.200000000000001" width="241.515625" height="26.400000000000002" style="fill: rgb(0, 0, 0); fill-opacity: 0;"/></g></g></g><rect class="scrollbar" rx="20" ry="3" width="0" height="0" style="fill: rgb(128, 139, 164); fill-opacity: 1;" x="0" y="0"/></g><g class="g-gtitle"><text class="gtitle" x="60" y="40" text-anchor="start" dy="0em" style="opacity: 1; font-family: 'Helvetica Neue'; font-size: 28px; fill: rgb(42, 63, 95); fill-opacity: 1; white-space: pre;">Distribution of z-Score for Amide coupling</text></g><g class="g-xtitle"><text class="xtitle" x="605" y="586.6001953125" text-anchor="middle" style="opacity: 1; font-family: 'Helvetica Neue'; font-size: 22px; fill: rgb(42, 63, 95); fill-opacity: 1; white-space: pre;">z-Score</text></g><g class="g-ytitle" transform="translate(0.150390625,0)"><text class="ytitle" transform="rotate(-90,20.849804687499997,306.5)" x="20.849804687499997" y="306.5" text-anchor="middle" style="opacity: 1; font-family: 'Helvetica Neue'; font-size: 22px; fill: rgb(42, 63, 95); fill-opacity: 1; white-space: pre;">Density</text></g><g class="annotation" data-index="0" style="opacity: 1;"><g class="annotation-text-g" transform="rotate(0,1031.1,143.06)"><g class="cursor-pointer" transform="translate(944,89)"><rect class="bg" x="0.5" y="0.5" width="174" height="107" style="stroke-width: 1px; stroke: rgb(204, 204, 204); stroke-opacity: 1; fill: rgb(255, 255, 255); fill-opacity: 0.9;"/><text class="annotation-text" text-anchor="end" x="165.5" y="23" style="font-family: 'Helvetica Neue'; font-size: 14px; fill: rgb(42, 63, 95); fill-opacity: 1; white-space: pre;"><tspan class="line" dy="0em" x="165.5" y="23"><tspan style="font-weight:bold">Distribution Statistics</tspan></tspan><tspan class="line" dy="1.3em" x="165.5" y="23">n = 3,960</tspan><tspan class="line" dy="2.6em" x="165.5" y="23">Skewness = 0.556</tspan><tspan class="line" dy="3.9000000000000004em" x="165.5" y="23">Kurtosis = -0.139</tspan><tspan class="line" dy="5.2em" x="165.5" y="23">Shapiro-Wilk p=7.33e-31</tspan></text></g></g></g></g></svg>