<svg class="main-svg" xmlns="http://www.w3.org/2000/svg" xmlns:xlink="http://www.w3.org/1999/xlink" width="1200" height="600" style="" viewBox="0 0 1200 600"><rect x="0" y="0" width="1200" height="600" style="fill: rgb(255, 255, 255); fill-opacity: 1;"/><defs id="defs-54e21c"><g class="clips"><clipPath id="clip54e21cxyplot" class="plotclip"><rect width="1070" height="453"/></clipPath><clipPath class="axesclip" id="clip54e21cx"><rect x="70" y="0" width="1070" height="600"/></clipPath><clipPath class="axesclip" id="clip54e21cy"><rect x="0" y="80" width="1200" height="453"/></clipPath><clipPath class="axesclip" id="clip54e21cxy"><rect x="70" y="80" width="1070" height="453"/></clipPath></g><g class="gradients"/><g class="patterns"/></defs><g class="bglayer"/><g class="layer-below"><g class="imagelayer"/><g class="shapelayer"/></g><g class="cartesianlayer"><g class="subplot xy"><g class="layer-subplot"><g class="shapelayer"/><g class="imagelayer"/></g><g class="minor-gridlayer"><g class="x"/><g class="y"/></g><g class="gridlayer"><g class="x"><path class="xgrid crisp" transform="translate(118.64,0)" d="M0,80v453" style="stroke: rgb(224, 224, 224); stroke-opacity: 1; stroke-width: 1px;"/><path class="xgrid crisp" transform="translate(313.18,0)" d="M0,80v453" style="stroke: rgb(224, 224, 224); stroke-opacity: 1; stroke-width: 1px;"/><path class="xgrid crisp" transform="translate(507.73,0)" d="M0,80v453" style="stroke: rgb(224, 224, 224); stroke-opacity: 1; stroke-width: 1px;"/><path class="xgrid crisp" transform="translate(702.27,0)" d="M0,80v453" style="stroke: rgb(224, 224, 224); stroke-opacity: 1; stroke-width: 1px;"/><path class="xgrid crisp" transform="translate(896.82,0)" d="M0,80v453" style="stroke: rgb(224, 224, 224); stroke-opacity: 1; stroke-width: 1px;"/><path class="xgrid crisp" transform="translate(1091.3600000000001,0)" d="M0,80v453" style="stroke: rgb(224, 224, 224); stroke-opacity: 1; stroke-width: 1px;"/></g><g class="y"><path class="ygrid crisp" transform="translate(0,439.86)" d="M70,0h1070" style="stroke: rgb(224, 224, 224); stroke-opacity: 1; stroke-width: 1px;"/><path class="ygrid crisp" transform="translate(0,369.37)" d="M70,0h1070" style="stroke: rgb(224, 224, 224); stroke-opacity: 1; stroke-width: 1px;"/><path class="ygrid crisp" transform="translate(0,298.88)" d="M70,0h1070" style="stroke: rgb(224, 224, 224); stroke-opacity: 1; stroke-width: 1px;"/><path class="ygrid crisp" transform="translate(0,228.39)" d="M70,0h1070" style="stroke: rgb(224, 224, 224); stroke-opacity: 1; stroke-width: 1px;"/><path class="ygrid crisp" transform="translate(0,157.9)" d="M70,0h1070" style="stroke: rgb(224, 224, 224); stroke-opacity: 1; stroke-width: 1px;"/><path class="ygrid crisp" transform="translate(0,87.41)" d="M70,0h1070" style="stroke: rgb(224, 224, 224); stroke-opacity: 1; stroke-width: 1px;"/></g></g><g class="zerolinelayer"><path class="yzl zl crisp" transform="translate(0,510.35)" d="M70,0h1070" style="stroke: rgb(255, 255, 255); stroke-opacity: 1; stroke-width: 2px;"/></g><g class="layer-between"><g class="shapelayer"/><g class="imagelayer"/></g><path class="xlines-below"/><path class="ylines-below"/><g class="overlines-below"/><g class="xaxislayer-below"/><g class="yaxislayer-below"/><g class="overaxes-below"/><g class="overplot"><g class="xy" transform="translate(70,80)" clip-path="url(#clip54e21cxyplot)"><g class="barlayer mlayer"><g class="trace bars" shape-rendering="crispEdges" style="opacity: 0.7;"><g class="points"><g class="point"><path d="M0,430.35V427.17H48.64V430.35Z" style="vector-effect: none; opacity: 1; stroke-width: 0px; fill: rgb(74, 144, 217); fill-opacity: 1;"/></g><g class="point"><path d="M48.64,430.35V410.03H97.27V430.35Z" style="vector-effect: none; opacity: 1; stroke-width: 0px; fill: rgb(74, 144, 217); fill-opacity: 1;"/></g><g class="point"><path d="M97.27,430.35V319.85H145.91V430.35Z" style="vector-effect: none; opacity: 1; stroke-width: 0px; fill: rgb(74, 144, 217); fill-opacity: 1;"/></g><g class="point"><path d="M145.91,430.35V81.71H194.55V430.35Z" style="vector-effect: none; opacity: 1; stroke-width: 0px; fill: rgb(74, 144, 217); fill-opacity: 1;"/></g><g class="point"><path d="M194.55,430.35V22.65H243.18V430.35Z" style="vector-effect: none; opacity: 1; stroke-width: 0px; fill: rgb(74, 144, 217); fill-opacity: 1;"/></g><g class="point"><path d="M243.18,430.35V287.46H291.82V430.35Z" style="vector-effect: none; opacity: 1; stroke-width: 0px; fill: rgb(74, 144, 217); fill-opacity: 1;"/></g><g class="point"><path d="M291.82,430.35V303.98H340.45V430.35Z" style="vector-effect: none; opacity: 1; stroke-width: 0px; fill: rgb(74, 144, 217); fill-opacity: 1;"/></g><g class="point"><path d="M340.45,430.35V302.07H389.09V430.35Z" style="vector-effect: none; opacity: 1; stroke-width: 0px; fill: rgb(74, 144, 217); fill-opacity: 1;"/></g><g class="point"><path d="M389.09,430.35V361.13H437.73V430.35Z" style="vector-effect: none; opacity: 1; stroke-width: 0px; fill: rgb(74, 144, 217); fill-opacity: 1;"/></g><g class="point"><path d="M437.73,430.35V399.87H486.36V430.35Z" style="vector-effect: none; opacity: 1; stroke-width: 0px; fill: rgb(74, 144, 217); fill-opacity: 1;"/></g><g class="point"><path d="M486.36,430.35V420.19H535V430.35Z" style="vector-effect: none; opacity: 1; stroke-width: 0px; fill: rgb(74, 144, 217); fill-opacity: 1;"/></g><g class="point"><path d="M535,430.35V423.36H583.64V430.35Z" style="vector-effect: none; opacity: 1; stroke-width: 0px; fill: rgb(74, 144, 217); fill-opacity: 1;"/></g><g class="point"><path d="M583.64,430.35V427.81H632.27V430.35Z" style="vector-effect: none; opacity: 1; stroke-width: 0px; fill: rgb(74, 144, 217); fill-opacity: 1;"/></g><g class="point"><path d="M632.27,430.35V429.71H680.91V430.35Z" style="vector-effect: none; opacity: 1; stroke-width: 0px; fill: rgb(74, 144, 217); fill-opacity: 1;"/></g><g class="point"><path d="M0,0Z" style="vector-effect: none; opacity: 1; stroke-width: 0px; fill: rgb(74, 144, 217); fill-opacity: 1;"/></g><g class="point"><path d="M0,0Z" style="vector-effect: none; opacity: 1; stroke-width: 0px; fill: rgb(74, 144, 217); fill-opacity: 1;"/></g><g class="point"><path d="M0,0Z" style="vector-effect: none; opacity: 1; stroke-width: 0px; fill: rgb(74, 144, 217); fill-opacity: 1;"/></g><g class="point"><path d="M0,0Z" style="vector-effect: none; opacity: 1; stroke-width: 0px; fill: rgb(74, 144, 217); fill-opacity: 1;"/></g><g class="point"><path d="M875.45,430.35V429.71H924.09V430.35Z" style="vector-effect: none; opacity: 1; stroke-width: 0px; fill: rgb(74, 144, 217); fill-opacity: 1;"/></g><g class="point"><path d="M0,0Z" style="vector-effect: none; opacity: 1; stroke-width: 0px; fill: rgb(74, 144, 217); fill-opacity: 1;"/></g><g class="point"><path d="M0,0Z" style="vector-effect: none; opacity: 1; stroke-width: 0px; fill: rgb(74, 144, 217); fill-opacity: 1;"/></g><g class="point"><path d="M1021.36,430.35V429.08H1070V430.35Z" style="vector-effect: none; opacity: 1; stroke-width: 0px; fill: rgb(74, 144, 217); fill-opacity: 1;"/></g></g></g></g><g class="scatterlayer mlayer"><g class="trace scatter traced9936d" style="stroke-miterlimit: 2; opacity: 1;"><g class="fills"/><g class="errorbars"/><g class="lines"><path class="js-line" d="M29.18,405.64L39.5,399.28L49.82,391.71L60.13,382.85L70.45,372.62L80.77,360.96L91.08,347.9L111.72,317.8L122.03,301.08L152.98,247.3L163.3,229.41L183.93,196.27L194.25,181.96L204.57,169.74L214.88,160L225.2,153.05L235.52,149.13L245.83,148.36L256.15,150.77L266.47,156.28L276.79,164.7L287.1,175.76L297.42,189.11L307.74,204.34L318.05,220.98L369.64,309.83L379.95,326.04L400.59,354.82L410.9,367.16L421.22,378.08L431.54,387.6L441.85,395.77L452.17,402.7L462.49,408.49L472.8,413.26L493.44,420.26L503.75,422.73L524.39,426.14L534.71,427.28L565.66,429.23L575.97,429.57L637.87,430.28L648.19,430.3L1050.55,430.35" style="vector-effect: none; fill: none; stroke: rgb(231, 76, 60); stroke-opacity: 1; stroke-width: 3px; opacity: 1;"/></g><g class="points"/><g class="text"/></g></g></g></g><g class="zerolinelayer-above"/><path class="xlines-above crisp" d="M68,534H1140" style="fill: none; stroke-width: 2px; stroke: rgb(204, 204, 204); stroke-opacity: 1;"/><path class="ylines-above crisp" d="M69,80V533" style="fill: none; stroke-width: 2px; stroke: rgb(204, 204, 204); stroke-opacity: 1;"/><g class="overlines-above"/><g class="xaxislayer-above"><g class="xtick"><text text-anchor="middle" x="0" y="554.2" transform="translate(118.64,0)" style="font-family: 'Helvetica Neue'; font-size: 16px; fill: rgb(42, 63, 95); fill-opacity: 1; white-space: pre;">−2</text></g><g class="xtick"><text text-anchor="middle" x="0" y="554.2" style="font-family: 'Helvetica Neue'; font-size: 16px; fill: rgb(42, 63, 95); fill-opacity: 1; white-space: pre;" transform="translate(313.18,0)">0</text></g><g class="xtick"><text text-anchor="middle" x="0" y="554.2" style="font-family: 'Helvetica Neue'; font-size: 16px; fill: rgb(42, 63, 95); fill-opacity: 1; white-space: pre;" transform="translate(507.73,0)">2</text></g><g class="xtick"><text text-anchor="middle" x="0" y="554.2" style="font-family: 'Helvetica Neue'; font-size: 16px; fill: rgb(42, 63, 95); fill-opacity: 1; white-space: pre;" transform="translate(702.27,0)">4</text></g><g class="xtick"><text text-anchor="middle" x="0" y="554.2" style="font-family: 'Helvetica Neue'; font-size: 16px; fill: rgb(42, 63, 95); fill-opacity: 1; white-space: pre;" transform="translate(896.82,0)">6</text></g><g class="xtick"><text text-anchor="middle" x="0" y="554.2" style="font-family: 'Helvetica Neue'; font-size: 16px; fill: rgb(42, 63, 95); fill-opacity: 1; white-space: pre;" transform="translate(1091.3600000000001,0)">8</text></g></g><g class="yaxislayer-above"><g class="ytick"><text text-anchor="end" x="64.8" y="5.6" transform="translate(0,510.35)" style="font-family: 'Helvetica Neue'; font-size: 16px; fill: rgb(42, 63, 95); fill-opacity: 1; white-space: pre;">0</text></g><g class="ytick"><text text-anchor="end" x="64.8" y="5.6" style="font-family: 'Helvetica Neue'; font-size: 16px; fill: rgb(42, 63, 95); fill-opacity: 1; white-space: pre;" transform="translate(0,439.86)">0.1</text></g><g class="ytick"><text text-anchor="end" x="64.8" y="5.6" style="font-family: 'Helvetica Neue'; font-size: 16px; fill: rgb(42, 63, 95); fill-opacity: 1; white-space: pre;" transform="translate(0,369.37)">0.2</text></g><g class="ytick"><text text-anchor="end" x="64.8" y="5.6" style="font-family: 'Helvetica Neue'; font-size: 16px; fill: rgb(42, 63, 95); fill-opacity: 1; white-space: pre;" transform="translate(0,298.88)">0.3</text></g><g class="ytick"><text text-anchor="end" x="64.8" y="5.6" style="font-family: 'Helvetica Neue'; font-size: 16px; fill: rgb(42, 63, 95); fill-opacity: 1; white-space: pre;" transform="translate(0,228.39)">0.4</text></g><g class="ytick"><text text-anchor="end" x="64.8" y="5.6" style="font-family: 'Helvetica Neue'; font-size: 16px; fill: rgb(42, 63, 95); fill-opacity: 1; white-space: pre;" transform="translate(0,157.9)">0.5</text></g><g class="ytick"><text text-anchor="end" x="64.8" y="5.6" style="font-family: 'Helvetica Neue'; font-size: 16px; fill: rgb(42, 63, 95); fill-opacity: 1; white-space: pre;" transform="translate(0,87.41)">0.6</text></g></g><g class="overaxes-above"/></g></g><g class="polarlayer"/><g class="smithlayer"/><g class="ternarylayer"/><g class="geolayer"/><g class="funnelarealayer"/><g class="pielayer"/><g class="iciclelayer"/><g class="treemaplayer"/><g class="sunburstlayer"/><g class="glimages"/><defs id="topdefs-54e21c"><g class="clips"/><clipPath id="legend54e21c"><rect width="247" height="63" x="0" y="0"/></clipPath></defs><g class="layer-above"><g class="imagelayer"/><g class="shapelayer"/></g><g class="infolayer"><g class="legend" pointer-events="all" transform="translate(91.4,89.06)"><rect class="bg" shape-rendering="crispEdges" style="stroke: rgb(68, 68, 68); stroke-opacity: 1; fill: rgb(255, 255, 255); fill-opacity: 0.8; stroke-width: 0px;" width="247" height="63" x="0" y="0"/><g class="scrollbox" transform="" clip-path="url(#legend54e21c)"><g class="groups"><g class="traces" transform="translate(0,18.200000000000003)" style="opacity: 1;"><text class="legendtext" text-anchor="start" x="40" y="7.0200000000000005" style="font-family: 'Helvetica Neue'; font-size: 18px; fill: rgb(42, 63, 95); fill-opacity: 1; white-space: pre;">Observed</text><g class="layers" style="opacity: 0.7;"><g class="legendfill"/><g class="legendlines"/><g class="legendsymbols"><g class="legendpoints"><path class="legendundefined" d="M6,6H-6V-6H6Z" transform="translate(20,0)" style="stroke-width: 0px; fill: rgb(74, 144, 217); fill-opacity: 1;"/></g></g></g><rect class="legendtoggle" x="0" y="-13.200000000000001" width="241.515625" height="26.400000000000002" style="fill: rgb(0, 0, 0); fill-opacity: 0;"/></g><g class="traces" transform="translate(0,44.6)" style="opacity: 1;"><text class="legendtext" text-anchor="start" x="40" y="7.0200000000000005" style="font-family: 'Helvetica Neue'; font-size: 18px; fill: rgb(42, 63, 95); fill-opacity: 1; white-space: pre;">Normal (μ=-0.00, σ=1.00)</text><g class="layers" style="opacity: 1;"><g class="legendfill"/><g class="legendlines"><path class="js-line" d="M5,0h30" style="fill: none; stroke: rgb(231, 76, 60); stroke-opacity: 1; stroke-width: 3px;"/></g><g class="legendsymbols"><g class="legendpoints"/></g></g><rect class="legendtoggle" x="0" y="-13.200000000000001" width="241.515625" height="26.400000000000002" style="fill: rgb(0, 0, 0); fill-opacity: 0;"/></g></g></g><rect class="scrollbar" rx="20" ry="3" width="0" height="0" style="fill: rgb(128, 139, 164); fill-opacity: 1;" x="0" y="0"/></g><g class="g-gtitle"><text class="gtitle" x="60" y="40" text-anchor="start" dy="0em" style="opacity: 1; font-family: 'Helvetica Neue'; font-size: 28px; fill: rgb(42, 63, 95); fill-opacity: 1; white-space: pre;">Distribution of z-Score for Condensation</text></g><g class="g-xtitle"><text class="xtitle" x="605" y="586.6001953125" text-anchor="middle" style="opacity: 1; font-family: 'Helvetica Neue'; font-size: 22px; fill: rgb(42, 63, 95); fill-opacity: 1; white-space: pre;">z-Score</text></g><g class="g-ytitle" transform="translate(0.150390625,0)"><text class="ytitle" transform="rotate(-90,20.849804687499997,306.5)" x="20.849804687499997" y="306.5" text-anchor="middle" style="opacity: 1; font-family: 'Helvetica Neue'; font-size: 22px; fill: rgb(42, 63, 95); fill-opacity: 1; white-space: pre;">Density</text></g><g class="annotation" data-index="0" style="opacity: 1;"><g class="annotation-text-g" transform="rotate(0,1031.1,143.06)"><g class="cursor-pointer" transform="translate(944,89)"><rect class="bg" x="0.5" y="0.5" width="174" height="107" style="stroke-width: 1px; stroke: rgb(204, 204, 204); stroke-opacity: 1; fill: rgb(255, 255, 255); fill-opacity: 0.9;"/><text class="annotation-text" text-anchor="end" x="165.5" y="23" style="font-family: 'Helvetica Neue'; font-size: 14px; fill: rgb(42, 63, 95); fill-opacity: 1; white-space: pre;"><tspan class="line" dy="0em" x="165.5" y="23"><tspan style="font-weight:bold">Distribution Statistics</tspan></tspan><tspan class="line" dy="1.3em" x="165.5" y="23">n = 2,220</tspan><tspan class="line" dy="2.6em" x="165.5" y="23">Skewness = 1.412</tspan><tspan class="line" dy="3.9000000000000004em" x="165.5" y="23">Kurtosis = 5.056</tspan><tspan class="line" dy="5.2em" x="165.5" y="23">Shapiro-Wilk p=1.21e-34</tspan></text></g></g></g></g></svg>