<svg class="main-svg" xmlns="http://www.w3.org/2000/svg" xmlns:xlink="http://www.w3.org/1999/xlink" width="1600" height="1000" style="" viewBox="0 0 1600 1000"><rect x="0" y="0" width="1600" height="1000" style="fill: rgb(255, 255, 255); fill-opacity: 1;"/><defs id="defs-27b94a"><g class="clips"><clipPath id="clip27b94axyplot" class="plotclip"><rect width="1234" height="805"/></clipPath><clipPath class="axesclip" id="clip27b94ax"><rect x="306" y="0" width="1234" height="1000"/></clipPath><clipPath class="axesclip" id="clip27b94ay"><rect x="0" y="100" width="1600" height="805"/></clipPath><clipPath class="axesclip" id="clip27b94axy"><rect x="306" y="100" width="1234" height="805"/></clipPath></g><g class="gradients"/><g class="patterns"/></defs><g class="bglayer"/><g class="layer-below"><g class="imagelayer"/><g class="shapelayer"/></g><g class="cartesianlayer"><g class="subplot xy"><g class="layer-subplot"><g class="shapelayer"/><g class="imagelayer"/></g><g class="minor-gridlayer"><g class="x"/><g class="y"/></g><g class="gridlayer"><g class="x"><path class="xgrid crisp" transform="translate(527.14,0)" d="M0,100v805" style="stroke: rgb(208, 208, 208); stroke-opacity: 1; stroke-width: 2px;"/><path class="xgrid crisp" transform="translate(799.6800000000001,0)" d="M0,100v805" style="stroke: rgb(208, 208, 208); stroke-opacity: 1; stroke-width: 2px;"/><path class="xgrid crisp" transform="translate(1072.22,0)" d="M0,100v805" style="stroke: rgb(208, 208, 208); stroke-opacity: 1; stroke-width: 2px;"/><path class="xgrid crisp" transform="translate(1344.76,0)" d="M0,100v805" style="stroke: rgb(208, 208, 208); stroke-opacity: 1; stroke-width: 2px;"/></g><g class="y"/></g><g class="zerolinelayer"/><g class="layer-between"><g class="shapelayer"/><g class="imagelayer"/></g><path class="xlines-below"/><path class="ylines-below"/><g class="overlines-below"/><g class="xaxislayer-below"/><g class="yaxislayer-below"/><g class="overaxes-below"/><g class="overplot"><g class="xy" transform="translate(306,100)" clip-path="url(#clip27b94axyplot)"><g class="boxlayer mlayer"><g class="trace boxes" style="opacity: 1;"><path class="box" d="M448.71,119.5V40.9M311.41,119.5V40.9H629.26V119.5ZM311.41,80.2H165.27M629.26,80.2H954.27M165.27,99.85V60.55M954.27,99.85V60.55" style="vector-effect: none; stroke-width: 2px; stroke: rgb(75, 0, 130); stroke-opacity: 1; fill: rgb(75, 0, 130); fill-opacity: 0.5;"/><g class="points"><path class="point" transform="translate(165.27,134.25)" d="M3,0A3,3 0 1,1 0,-3A3,3 0 0,1 3,0Z" style="opacity: 1; stroke-width: 0px; fill: rgb(75, 0, 130); fill-opacity: 1;"/><path class="point" transform="translate(165.27,145.33)" d="M3,0A3,3 0 1,1 0,-3A3,3 0 0,1 3,0Z" style="opacity: 1; stroke-width: 0px; fill: rgb(75, 0, 130); fill-opacity: 1;"/><path class="point" transform="translate(170.72,131.36)" d="M3,0A3,3 0 1,1 0,-3A3,3 0 0,1 3,0Z" style="opacity: 1; stroke-width: 0px; fill: rgb(75, 0, 130); fill-opacity: 1;"/><path class="point" transform="translate(233.4,146.9)" d="M3,0A3,3 0 1,1 0,-3A3,3 0 0,1 3,0Z" style="opacity: 1; stroke-width: 0px; fill: rgb(75, 0, 130); fill-opacity: 1;"/><path class="point" transform="translate(247.03,141.49)" d="M3,0A3,3 0 1,1 0,-3A3,3 0 0,1 3,0Z" style="opacity: 1; stroke-width: 0px; fill: rgb(75, 0, 130); fill-opacity: 1;"/><path class="point" transform="translate(257.93,133.9)" d="M3,0A3,3 0 1,1 0,-3A3,3 0 0,1 3,0Z" style="opacity: 1; stroke-width: 0px; fill: rgb(75, 0, 130); fill-opacity: 1;"/><path class="point" transform="translate(270.19,139.48)" d="M3,0A3,3 0 1,1 0,-3A3,3 0 0,1 3,0Z" style="opacity: 1; stroke-width: 0px; fill: rgb(75, 0, 130); fill-opacity: 1;"/><path class="point" transform="translate(279.73,136.56)" d="M3,0A3,3 0 1,1 0,-3A3,3 0 0,1 3,0Z" style="opacity: 1; stroke-width: 0px; fill: rgb(75, 0, 130); fill-opacity: 1;"/><path class="point" transform="translate(321.98,142.31)" d="M3,0A3,3 0 1,1 0,-3A3,3 0 0,1 3,0Z" style="opacity: 1; stroke-width: 0px; fill: rgb(75, 0, 130); fill-opacity: 1;"/><path class="point" transform="translate(328.79,146.36)" d="M3,0A3,3 0 1,1 0,-3A3,3 0 0,1 3,0Z" style="opacity: 1; stroke-width: 0px; fill: rgb(75, 0, 130); fill-opacity: 1;"/><path class="point" transform="translate(330.15,136.64)" d="M3,0A3,3 0 1,1 0,-3A3,3 0 0,1 3,0Z" style="opacity: 1; stroke-width: 0px; fill: rgb(75, 0, 130); fill-opacity: 1;"/><path class="point" transform="translate(376.48,142.31)" d="M3,0A3,3 0 1,1 0,-3A3,3 0 0,1 3,0Z" style="opacity: 1; stroke-width: 0px; fill: rgb(75, 0, 130); fill-opacity: 1;"/><path class="point" transform="translate(377.85,132.98)" d="M3,0A3,3 0 1,1 0,-3A3,3 0 0,1 3,0Z" style="opacity: 1; stroke-width: 0px; fill: rgb(75, 0, 130); fill-opacity: 1;"/><path class="point" transform="translate(401.01,149.8)" d="M3,0A3,3 0 1,1 0,-3A3,3 0 0,1 3,0Z" style="opacity: 1; stroke-width: 0px; fill: rgb(75, 0, 130); fill-opacity: 1;"/><path class="point" transform="translate(417.36,145.3)" d="M3,0A3,3 0 1,1 0,-3A3,3 0 0,1 3,0Z" style="opacity: 1; stroke-width: 0px; fill: rgb(75, 0, 130); fill-opacity: 1;"/><path class="point" transform="translate(444.62,130.19)" d="M3,0A3,3 0 1,1 0,-3A3,3 0 0,1 3,0Z" style="opacity: 1; stroke-width: 0px; fill: rgb(75, 0, 130); fill-opacity: 1;"/><path class="point" transform="translate(448.71,142.1)" d="M3,0A3,3 0 1,1 0,-3A3,3 0 0,1 3,0Z" style="opacity: 1; stroke-width: 0px; fill: rgb(75, 0, 130); fill-opacity: 1;"/><path class="point" transform="translate(454.16,149.27)" d="M3,0A3,3 0 1,1 0,-3A3,3 0 0,1 3,0Z" style="opacity: 1; stroke-width: 0px; fill: rgb(75, 0, 130); fill-opacity: 1;"/><path class="point" transform="translate(459.61,142.35)" d="M3,0A3,3 0 1,1 0,-3A3,3 0 0,1 3,0Z" style="opacity: 1; stroke-width: 0px; fill: rgb(75, 0, 130); fill-opacity: 1;"/><path class="point" transform="translate(474.6,139.34)" d="M3,0A3,3 0 1,1 0,-3A3,3 0 0,1 3,0Z" style="opacity: 1; stroke-width: 0px; fill: rgb(75, 0, 130); fill-opacity: 1;"/><path class="point" transform="translate(490.95,135.1)" d="M3,0A3,3 0 1,1 0,-3A3,3 0 0,1 3,0Z" style="opacity: 1; stroke-width: 0px; fill: rgb(75, 0, 130); fill-opacity: 1;"/><path class="point" transform="translate(495.04,138.18)" d="M3,0A3,3 0 1,1 0,-3A3,3 0 0,1 3,0Z" style="opacity: 1; stroke-width: 0px; fill: rgb(75, 0, 130); fill-opacity: 1;"/><path class="point" transform="translate(496.4,141.55)" d="M3,0A3,3 0 1,1 0,-3A3,3 0 0,1 3,0Z" style="opacity: 1; stroke-width: 0px; fill: rgb(75, 0, 130); fill-opacity: 1;"/><path class="point" transform="translate(576.8,146.12)" d="M3,0A3,3 0 1,1 0,-3A3,3 0 0,1 3,0Z" style="opacity: 1; stroke-width: 0px; fill: rgb(75, 0, 130); fill-opacity: 1;"/><path class="point" transform="translate(623.13,139.17)" d="M3,0A3,3 0 1,1 0,-3A3,3 0 0,1 3,0Z" style="opacity: 1; stroke-width: 0px; fill: rgb(75, 0, 130); fill-opacity: 1;"/><path class="point" transform="translate(647.66,141.63)" d="M3,0A3,3 0 1,1 0,-3A3,3 0 0,1 3,0Z" style="opacity: 1; stroke-width: 0px; fill: rgb(75, 0, 130); fill-opacity: 1;"/><path class="point" transform="translate(668.1,135.85)" d="M3,0A3,3 0 1,1 0,-3A3,3 0 0,1 3,0Z" style="opacity: 1; stroke-width: 0px; fill: rgb(75, 0, 130); fill-opacity: 1;"/><path class="point" transform="translate(681.73,139.68)" d="M3,0A3,3 0 1,1 0,-3A3,3 0 0,1 3,0Z" style="opacity: 1; stroke-width: 0px; fill: rgb(75, 0, 130); fill-opacity: 1;"/><path class="point" transform="translate(696.72,143.25)" d="M3,0A3,3 0 1,1 0,-3A3,3 0 0,1 3,0Z" style="opacity: 1; stroke-width: 0px; fill: rgb(75, 0, 130); fill-opacity: 1;"/><path class="point" transform="translate(702.17,145.03)" d="M3,0A3,3 0 1,1 0,-3A3,3 0 0,1 3,0Z" style="opacity: 1; stroke-width: 0px; fill: rgb(75, 0, 130); fill-opacity: 1;"/><path class="point" transform="translate(718.52,135.69)" d="M3,0A3,3 0 1,1 0,-3A3,3 0 0,1 3,0Z" style="opacity: 1; stroke-width: 0px; fill: rgb(75, 0, 130); fill-opacity: 1;"/><path class="point" transform="translate(823.45,144.17)" d="M3,0A3,3 0 1,1 0,-3A3,3 0 0,1 3,0Z" style="opacity: 1; stroke-width: 0px; fill: rgb(75, 0, 130); fill-opacity: 1;"/><path class="point" transform="translate(954.27,135.88)" d="M3,0A3,3 0 1,1 0,-3A3,3 0 0,1 3,0Z" style="opacity: 1; stroke-width: 0px; fill: rgb(75, 0, 130); fill-opacity: 1;"/></g></g><g class="trace boxes" style="opacity: 1;"><path class="box" d="M406.46,279.9V201.3M357.75,279.9V201.3H493.34V279.9ZM357.75,240.6H155.73M493.34,240.6H555M155.73,260.25V220.95M555,260.25V220.95" style="vector-effect: none; stroke-width: 2px; stroke: rgb(178, 153, 210); stroke-opacity: 1; fill: rgb(178, 153, 210); fill-opacity: 0.5;"/><g class="points"><path class="point" transform="translate(144.82,296.23)" d="M3,0A3,3 0 1,1 0,-3A3,3 0 0,1 3,0Z" style="opacity: 1; stroke-width: 0px; fill: rgb(178, 153, 210); fill-opacity: 1;"/><path class="point" transform="translate(155.73,304.01)" d="M3,0A3,3 0 1,1 0,-3A3,3 0 0,1 3,0Z" style="opacity: 1; stroke-width: 0px; fill: rgb(178, 153, 210); fill-opacity: 1;"/><path class="point" transform="translate(155.73,293.72)" d="M3,0A3,3 0 1,1 0,-3A3,3 0 0,1 3,0Z" style="opacity: 1; stroke-width: 0px; fill: rgb(178, 153, 210); fill-opacity: 1;"/><path class="point" transform="translate(330.15,306.24)" d="M3,0A3,3 0 1,1 0,-3A3,3 0 0,1 3,0Z" style="opacity: 1; stroke-width: 0px; fill: rgb(178, 153, 210); fill-opacity: 1;"/><path class="point" transform="translate(342.42,301.52)" d="M3,0A3,3 0 1,1 0,-3A3,3 0 0,1 3,0Z" style="opacity: 1; stroke-width: 0px; fill: rgb(178, 153, 210); fill-opacity: 1;"/><path class="point" transform="translate(362.86,295.22)" d="M3,0A3,3 0 1,1 0,-3A3,3 0 0,1 3,0Z" style="opacity: 1; stroke-width: 0px; fill: rgb(178, 153, 210); fill-opacity: 1;"/><path class="point" transform="translate(362.86,299.86)" d="M3,0A3,3 0 1,1 0,-3A3,3 0 0,1 3,0Z" style="opacity: 1; stroke-width: 0px; fill: rgb(178, 153, 210); fill-opacity: 1;"/><path class="point" transform="translate(365.58,297.22)" d="M3,0A3,3 0 1,1 0,-3A3,3 0 0,1 3,0Z" style="opacity: 1; stroke-width: 0px; fill: rgb(178, 153, 210); fill-opacity: 1;"/><path class="point" transform="translate(372.4,303.18)" d="M3,0A3,3 0 1,1 0,-3A3,3 0 0,1 3,0Z" style="opacity: 1; stroke-width: 0px; fill: rgb(178, 153, 210); fill-opacity: 1;"/><path class="point" transform="translate(395.56,307.97)" d="M3,0A3,3 0 1,1 0,-3A3,3 0 0,1 3,0Z" style="opacity: 1; stroke-width: 0px; fill: rgb(178, 153, 210); fill-opacity: 1;"/><path class="point" transform="translate(406.46,296.4)" d="M3,0A3,3 0 1,1 0,-3A3,3 0 0,1 3,0Z" style="opacity: 1; stroke-width: 0px; fill: rgb(178, 153, 210); fill-opacity: 1;"/><path class="point" transform="translate(411.91,303.29)" d="M3,0A3,3 0 1,1 0,-3A3,3 0 0,1 3,0Z" style="opacity: 1; stroke-width: 0px; fill: rgb(178, 153, 210); fill-opacity: 1;"/><path class="point" transform="translate(430.99,292.76)" d="M3,0A3,3 0 1,1 0,-3A3,3 0 0,1 3,0Z" style="opacity: 1; stroke-width: 0px; fill: rgb(178, 153, 210); fill-opacity: 1;"/><path class="point" transform="translate(467.78,309.16)" d="M3,0A3,3 0 1,1 0,-3A3,3 0 0,1 3,0Z" style="opacity: 1; stroke-width: 0px; fill: rgb(178, 153, 210); fill-opacity: 1;"/><path class="point" transform="translate(477.32,302.69)" d="M3,0A3,3 0 1,1 0,-3A3,3 0 0,1 3,0Z" style="opacity: 1; stroke-width: 0px; fill: rgb(178, 153, 210); fill-opacity: 1;"/><path class="point" transform="translate(490.95,295.28)" d="M3,0A3,3 0 1,1 0,-3A3,3 0 0,1 3,0Z" style="opacity: 1; stroke-width: 0px; fill: rgb(178, 153, 210); fill-opacity: 1;"/><path class="point" transform="translate(500.49,300.7)" d="M3,0A3,3 0 1,1 0,-3A3,3 0 0,1 3,0Z" style="opacity: 1; stroke-width: 0px; fill: rgb(178, 153, 210); fill-opacity: 1;"/><path class="point" transform="translate(520.93,303.31)" d="M3,0A3,3 0 1,1 0,-3A3,3 0 0,1 3,0Z" style="opacity: 1; stroke-width: 0px; fill: rgb(178, 153, 210); fill-opacity: 1;"/><path class="point" transform="translate(555,300.94)" d="M3,0A3,3 0 1,1 0,-3A3,3 0 0,1 3,0Z" style="opacity: 1; stroke-width: 0px; fill: rgb(178, 153, 210); fill-opacity: 1;"/><path class="point" transform="translate(1000.6,299.63)" d="M3,0A3,3 0 1,1 0,-3A3,3 0 0,1 3,0Z" style="opacity: 1; stroke-width: 0px; fill: rgb(178, 153, 210); fill-opacity: 1;"/><path class="point" transform="translate(1172.3,297.92)" d="M3,0A3,3 0 1,1 0,-3A3,3 0 0,1 3,0Z" style="opacity: 1; stroke-width: 0px; fill: rgb(178, 153, 210); fill-opacity: 1;"/></g></g><g class="trace boxes" style="opacity: 1;"><path class="box" d="M328.79,440.3V361.7M234.08,440.3V361.7H457.9V440.3ZM234.08,401H116.21M457.9,401H595.88M116.21,420.65V381.35M595.88,420.65V381.35" style="vector-effect: none; stroke-width: 2px; stroke: rgb(230, 230, 250); stroke-opacity: 1; fill: rgb(230, 230, 250); fill-opacity: 0.5;"/><g class="points"><path class="point" transform="translate(116.21,454.15)" d="M3,0A3,3 0 1,1 0,-3A3,3 0 0,1 3,0Z" style="opacity: 1; stroke-width: 0px; fill: rgb(230, 230, 250); fill-opacity: 1;"/><path class="point" transform="translate(202.06,467.37)" d="M3,0A3,3 0 1,1 0,-3A3,3 0 0,1 3,0Z" style="opacity: 1; stroke-width: 0px; fill: rgb(230, 230, 250); fill-opacity: 1;"/><path class="point" transform="translate(229.31,450.81)" d="M3,0A3,3 0 1,1 0,-3A3,3 0 0,1 3,0Z" style="opacity: 1; stroke-width: 0px; fill: rgb(230, 230, 250); fill-opacity: 1;"/><path class="point" transform="translate(248.39,469.05)" d="M3,0A3,3 0 1,1 0,-3A3,3 0 0,1 3,0Z" style="opacity: 1; stroke-width: 0px; fill: rgb(230, 230, 250); fill-opacity: 1;"/><path class="point" transform="translate(259.29,462.4)" d="M3,0A3,3 0 1,1 0,-3A3,3 0 0,1 3,0Z" style="opacity: 1; stroke-width: 0px; fill: rgb(230, 230, 250); fill-opacity: 1;"/><path class="point" transform="translate(328.79,455.94)" d="M3,0A3,3 0 1,1 0,-3A3,3 0 0,1 3,0Z" style="opacity: 1; stroke-width: 0px; fill: rgb(230, 230, 250); fill-opacity: 1;"/><path class="point" transform="translate(350.59,460.23)" d="M3,0A3,3 0 1,1 0,-3A3,3 0 0,1 3,0Z" style="opacity: 1; stroke-width: 0px; fill: rgb(230, 230, 250); fill-opacity: 1;"/><path class="point" transform="translate(383.3,457.83)" d="M3,0A3,3 0 1,1 0,-3A3,3 0 0,1 3,0Z" style="opacity: 1; stroke-width: 0px; fill: rgb(230, 230, 250); fill-opacity: 1;"/><path class="point" transform="translate(482.77,462.15)" d="M3,0A3,3 0 1,1 0,-3A3,3 0 0,1 3,0Z" style="opacity: 1; stroke-width: 0px; fill: rgb(230, 230, 250); fill-opacity: 1;"/><path class="point" transform="translate(595.88,464.66)" d="M3,0A3,3 0 1,1 0,-3A3,3 0 0,1 3,0Z" style="opacity: 1; stroke-width: 0px; fill: rgb(230, 230, 250); fill-opacity: 1;"/><path class="point" transform="translate(1027.85,458.3)" d="M3,0A3,3 0 1,1 0,-3A3,3 0 0,1 3,0Z" style="opacity: 1; stroke-width: 0px; fill: rgb(230, 230, 250); fill-opacity: 1;"/></g></g><g class="trace boxes" style="opacity: 1;"><path class="box" d="M223.86,600.7V522.1M198.31,600.7V522.1H310.05V600.7ZM198.31,561.4H161.18M310.05,561.4H444.62M161.18,581.05V541.75M444.62,581.05V541.75" style="vector-effect: none; stroke-width: 2px; stroke: rgb(230, 230, 250); stroke-opacity: 1; fill: rgb(230, 230, 250); fill-opacity: 0.5;"/><g class="points"><path class="point" transform="translate(161.18,615)" d="M3,0A3,3 0 1,1 0,-3A3,3 0 0,1 3,0Z" style="opacity: 1; stroke-width: 0px; fill: rgb(230, 230, 250); fill-opacity: 1;"/><path class="point" transform="translate(187.07,627.38)" d="M3,0A3,3 0 1,1 0,-3A3,3 0 0,1 3,0Z" style="opacity: 1; stroke-width: 0px; fill: rgb(230, 230, 250); fill-opacity: 1;"/><path class="point" transform="translate(195.24,611.21)" d="M3,0A3,3 0 1,1 0,-3A3,3 0 0,1 3,0Z" style="opacity: 1; stroke-width: 0px; fill: rgb(230, 230, 250); fill-opacity: 1;"/><path class="point" transform="translate(199.33,630.03)" d="M3,0A3,3 0 1,1 0,-3A3,3 0 0,1 3,0Z" style="opacity: 1; stroke-width: 0px; fill: rgb(230, 230, 250); fill-opacity: 1;"/><path class="point" transform="translate(207.51,622.57)" d="M3,0A3,3 0 1,1 0,-3A3,3 0 0,1 3,0Z" style="opacity: 1; stroke-width: 0px; fill: rgb(230, 230, 250); fill-opacity: 1;"/><path class="point" transform="translate(221.14,615.86)" d="M3,0A3,3 0 1,1 0,-3A3,3 0 0,1 3,0Z" style="opacity: 1; stroke-width: 0px; fill: rgb(230, 230, 250); fill-opacity: 1;"/><path class="point" transform="translate(223.86,620.63)" d="M3,0A3,3 0 1,1 0,-3A3,3 0 0,1 3,0Z" style="opacity: 1; stroke-width: 0px; fill: rgb(230, 230, 250); fill-opacity: 1;"/><path class="point" transform="translate(225.22,618.28)" d="M3,0A3,3 0 1,1 0,-3A3,3 0 0,1 3,0Z" style="opacity: 1; stroke-width: 0px; fill: rgb(230, 230, 250); fill-opacity: 1;"/><path class="point" transform="translate(238.85,622.53)" d="M3,0A3,3 0 1,1 0,-3A3,3 0 0,1 3,0Z" style="opacity: 1; stroke-width: 0px; fill: rgb(230, 230, 250); fill-opacity: 1;"/><path class="point" transform="translate(301.54,625.15)" d="M3,0A3,3 0 1,1 0,-3A3,3 0 0,1 3,0Z" style="opacity: 1; stroke-width: 0px; fill: rgb(230, 230, 250); fill-opacity: 1;"/><path class="point" transform="translate(335.6,618.66)" d="M3,0A3,3 0 1,1 0,-3A3,3 0 0,1 3,0Z" style="opacity: 1; stroke-width: 0px; fill: rgb(230, 230, 250); fill-opacity: 1;"/><path class="point" transform="translate(406.46,622.28)" d="M3,0A3,3 0 1,1 0,-3A3,3 0 0,1 3,0Z" style="opacity: 1; stroke-width: 0px; fill: rgb(230, 230, 250); fill-opacity: 1;"/><path class="point" transform="translate(444.62,616.93)" d="M3,0A3,3 0 1,1 0,-3A3,3 0 0,1 3,0Z" style="opacity: 1; stroke-width: 0px; fill: rgb(230, 230, 250); fill-opacity: 1;"/></g></g><g class="trace boxes" style="opacity: 1;"><path class="box" d="M166.63,761.1V682.5M114.5,761.1V682.5H237.49V761.1ZM114.5,721.8H61.7M237.49,721.8H373.76M61.7,741.45V702.15M373.76,741.45V702.15" style="vector-effect: none; stroke-width: 2px; stroke: rgb(230, 230, 250); stroke-opacity: 1; fill: rgb(230, 230, 250); fill-opacity: 0.5;"/><g class="points"><path class="point" transform="translate(61.7,775.41)" d="M3,0A3,3 0 1,1 0,-3A3,3 0 0,1 3,0Z" style="opacity: 1; stroke-width: 0px; fill: rgb(230, 230, 250); fill-opacity: 1;"/><path class="point" transform="translate(109.39,787.84)" d="M3,0A3,3 0 1,1 0,-3A3,3 0 0,1 3,0Z" style="opacity: 1; stroke-width: 0px; fill: rgb(230, 230, 250); fill-opacity: 1;"/><path class="point" transform="translate(113.48,771.61)" d="M3,0A3,3 0 1,1 0,-3A3,3 0 0,1 3,0Z" style="opacity: 1; stroke-width: 0px; fill: rgb(230, 230, 250); fill-opacity: 1;"/><path class="point" transform="translate(114.85,789.72)" d="M3,0A3,3 0 1,1 0,-3A3,3 0 0,1 3,0Z" style="opacity: 1; stroke-width: 0px; fill: rgb(230, 230, 250); fill-opacity: 1;"/><path class="point" transform="translate(157.09,783.4)" d="M3,0A3,3 0 1,1 0,-3A3,3 0 0,1 3,0Z" style="opacity: 1; stroke-width: 0px; fill: rgb(230, 230, 250); fill-opacity: 1;"/><path class="point" transform="translate(163.9,775.29)" d="M3,0A3,3 0 1,1 0,-3A3,3 0 0,1 3,0Z" style="opacity: 1; stroke-width: 0px; fill: rgb(230, 230, 250); fill-opacity: 1;"/><path class="point" transform="translate(166.63,781.09)" d="M3,0A3,3 0 1,1 0,-3A3,3 0 0,1 3,0Z" style="opacity: 1; stroke-width: 0px; fill: rgb(230, 230, 250); fill-opacity: 1;"/><path class="point" transform="translate(170.72,778.1)" d="M3,0A3,3 0 1,1 0,-3A3,3 0 0,1 3,0Z" style="opacity: 1; stroke-width: 0px; fill: rgb(230, 230, 250); fill-opacity: 1;"/><path class="point" transform="translate(215.69,783.51)" d="M3,0A3,3 0 1,1 0,-3A3,3 0 0,1 3,0Z" style="opacity: 1; stroke-width: 0px; fill: rgb(230, 230, 250); fill-opacity: 1;"/><path class="point" transform="translate(229.31,787.3)" d="M3,0A3,3 0 1,1 0,-3A3,3 0 0,1 3,0Z" style="opacity: 1; stroke-width: 0px; fill: rgb(230, 230, 250); fill-opacity: 1;"/><path class="point" transform="translate(262.02,778.48)" d="M3,0A3,3 0 1,1 0,-3A3,3 0 0,1 3,0Z" style="opacity: 1; stroke-width: 0px; fill: rgb(230, 230, 250); fill-opacity: 1;"/><path class="point" transform="translate(368.31,783.35)" d="M3,0A3,3 0 1,1 0,-3A3,3 0 0,1 3,0Z" style="opacity: 1; stroke-width: 0px; fill: rgb(230, 230, 250); fill-opacity: 1;"/><path class="point" transform="translate(373.76,776.12)" d="M3,0A3,3 0 1,1 0,-3A3,3 0 0,1 3,0Z" style="opacity: 1; stroke-width: 0px; fill: rgb(230, 230, 250); fill-opacity: 1;"/></g></g></g></g></g><g class="zerolinelayer-above"/><path class="xlines-above crisp" d="M303,906.5H1540" style="fill: none; stroke-width: 3px; stroke: rgb(204, 204, 204); stroke-opacity: 1;"/><path class="ylines-above crisp" d="M304.5,100V905" style="fill: none; stroke-width: 3px; stroke: rgb(204, 204, 204); stroke-opacity: 1;"/><g class="overlines-above"/><g class="xaxislayer-above"><g class="xtick"><text text-anchor="middle" x="0" y="941.6" transform="translate(527.14,0)" style="font-family: 'Helvetica Neue'; font-size: 28px; fill: rgb(42, 63, 95); fill-opacity: 1; white-space: pre;">0</text></g><g class="xtick"><text text-anchor="middle" x="0" y="941.6" style="font-family: 'Helvetica Neue'; font-size: 28px; fill: rgb(42, 63, 95); fill-opacity: 1; white-space: pre;" transform="translate(799.6800000000001,0)">2</text></g><g class="xtick"><text text-anchor="middle" x="0" y="941.6" style="font-family: 'Helvetica Neue'; font-size: 28px; fill: rgb(42, 63, 95); fill-opacity: 1; white-space: pre;" transform="translate(1072.22,0)">4</text></g><g class="xtick"><text text-anchor="middle" x="0" y="941.6" style="font-family: 'Helvetica Neue'; font-size: 28px; fill: rgb(42, 63, 95); fill-opacity: 1; white-space: pre;" transform="translate(1344.76,0)">6</text></g></g><g class="yaxislayer-above"><g class="ytick"><text text-anchor="end" x="297.4" y="9.799999999999999" transform="translate(0,821.8)" style="font-family: 'Helvetica Neue'; font-size: 28px; fill: rgb(42, 63, 95); fill-opacity: 1; white-space: pre;">JosiphosSL-J009-1</text></g><g class="ytick"><text text-anchor="end" x="297.4" y="9.799999999999999" transform="translate(0,661.4)" style="font-family: 'Helvetica Neue'; font-size: 28px; fill: rgb(42, 63, 95); fill-opacity: 1; white-space: pre;">meCgPPh</text></g><g class="ytick"><text text-anchor="end" x="297.4" y="9.799999999999999" transform="translate(0,501)" style="font-family: 'Helvetica Neue'; font-size: 28px; fill: rgb(42, 63, 95); fill-opacity: 1; white-space: pre;">Missing</text></g><g class="ytick"><text text-anchor="end" x="297.4" y="9.799999999999999" transform="translate(0,340.6)" style="font-family: 'Helvetica Neue'; font-size: 28px; fill: rgb(42, 63, 95); fill-opacity: 1; white-space: pre;">DPEPhos</text></g><g class="ytick"><text text-anchor="end" x="297.4" y="9.799999999999999" transform="translate(0,180.2)" style="font-family: 'Helvetica Neue'; font-size: 28px; fill: rgb(42, 63, 95); fill-opacity: 1; white-space: pre;">XantPhos</text></g></g><g class="overaxes-above"/></g></g><g class="polarlayer"/><g class="smithlayer"/><g class="ternarylayer"/><g class="geolayer"/><g class="funnelarealayer"/><g class="pielayer"/><g class="iciclelayer"/><g class="treemaplayer"/><g class="sunburstlayer"/><g class="glimages"/><defs id="topdefs-27b94a"><g class="clips"/></defs><g class="layer-above"><g class="imagelayer"/><g class="shapelayer"/></g><g class="infolayer"><g class="g-gtitle"><text class="gtitle" x="80" y="50" text-anchor="start" dy="0em" style="opacity: 1; font-family: 'Helvetica Neue'; font-size: 48px; fill: rgb(29, 29, 31); fill-opacity: 1; white-space: pre;">CH-Activation - Boxplot of z-Score by Ligand</text></g><g class="g-xtitle"><text class="xtitle" x="923" y="986.299609375" text-anchor="middle" style="opacity: 1; font-family: 'Helvetica Neue'; font-size: 36px; fill: rgb(42, 63, 95); fill-opacity: 1; white-space: pre;">z-Score</text></g><g class="g-ytitle" transform="translate(8.07421875,0)"><text class="ytitle" transform="rotate(-90,25.925390624999977,502.5)" x="25.925390624999977" y="502.5" text-anchor="middle" style="opacity: 1; font-family: 'Helvetica Neue'; font-size: 36px; fill: rgb(42, 63, 95); fill-opacity: 1; white-space: pre;">Ligand</text></g></g></svg>