<svg class="main-svg" xmlns="http://www.w3.org/2000/svg" xmlns:xlink="http://www.w3.org/1999/xlink" width="1600" height="1000" style="" viewBox="0 0 1600 1000"><rect x="0" y="0" width="1600" height="1000" style="fill: rgb(255, 255, 255); fill-opacity: 1;"/><defs id="defs-b8208b"><g class="clips"><clipPath id="clipb8208bxyplot" class="plotclip"><rect width="1135" height="805"/></clipPath><clipPath class="axesclip" id="clipb8208bx"><rect x="405" y="0" width="1135" height="1000"/></clipPath><clipPath class="axesclip" id="clipb8208by"><rect x="0" y="100" width="1600" height="805"/></clipPath><clipPath class="axesclip" id="clipb8208bxy"><rect x="405" y="100" width="1135" height="805"/></clipPath></g><g class="gradients"/><g class="patterns"/></defs><g class="bglayer"/><g class="layer-below"><g class="imagelayer"/><g class="shapelayer"/></g><g class="cartesianlayer"><g class="subplot xy"><g class="layer-subplot"><g class="shapelayer"/><g class="imagelayer"/></g><g class="minor-gridlayer"><g class="x"/><g class="y"/></g><g class="gridlayer"><g class="x"><path class="xgrid crisp" transform="translate(630.3199999999999,0)" d="M0,100v805" style="stroke: rgb(208, 208, 208); stroke-opacity: 1; stroke-width: 2px;"/><path class="xgrid crisp" transform="translate(918.47,0)" d="M0,100v805" style="stroke: rgb(208, 208, 208); stroke-opacity: 1; stroke-width: 2px;"/><path class="xgrid crisp" transform="translate(1206.62,0)" d="M0,100v805" style="stroke: rgb(208, 208, 208); stroke-opacity: 1; stroke-width: 2px;"/><path class="xgrid crisp" transform="translate(1494.78,0)" d="M0,100v805" style="stroke: rgb(208, 208, 208); stroke-opacity: 1; stroke-width: 2px;"/></g><g class="y"/></g><g class="zerolinelayer"/><g class="layer-between"><g class="shapelayer"/><g class="imagelayer"/></g><path class="xlines-below"/><path class="ylines-below"/><g class="overlines-below"/><g class="xaxislayer-below"/><g class="yaxislayer-below"/><g class="overaxes-below"/><g class="overplot"><g class="xy" transform="translate(405,100)" clip-path="url(#clipb8208bxyplot)"><g class="boxlayer mlayer"><g class="trace boxes" style="opacity: 1;"><path class="box" d="M474.57,119.5V40.9M390.65,119.5V40.9H580.11V119.5ZM390.65,80.2H238.29M580.11,80.2H751.2M238.29,99.85V60.55M751.2,99.85V60.55" style="vector-effect: none; stroke-width: 2px; stroke: rgb(0, 58, 107); stroke-opacity: 1; fill: rgb(0, 58, 107); fill-opacity: 0.5;"/><g class="points"><path class="point" transform="translate(238.29,135.78)" d="M3,0A3,3 0 1,1 0,-3A3,3 0 0,1 3,0Z" style="opacity: 1; stroke-width: 0px; fill: rgb(0, 58, 107); fill-opacity: 1;"/><path class="point" transform="translate(252.69,143.34)" d="M3,0A3,3 0 1,1 0,-3A3,3 0 0,1 3,0Z" style="opacity: 1; stroke-width: 0px; fill: rgb(0, 58, 107); fill-opacity: 1;"/><path class="point" transform="translate(264.22,134.17)" d="M3,0A3,3 0 1,1 0,-3A3,3 0 0,1 3,0Z" style="opacity: 1; stroke-width: 0px; fill: rgb(0, 58, 107); fill-opacity: 1;"/><path class="point" transform="translate(287.27,144.68)" d="M3,0A3,3 0 1,1 0,-3A3,3 0 0,1 3,0Z" style="opacity: 1; stroke-width: 0px; fill: rgb(0, 58, 107); fill-opacity: 1;"/><path class="point" transform="translate(352.11,140.82)" d="M3,0A3,3 0 1,1 0,-3A3,3 0 0,1 3,0Z" style="opacity: 1; stroke-width: 0px; fill: rgb(0, 58, 107); fill-opacity: 1;"/><path class="point" transform="translate(362.19,135.56)" d="M3,0A3,3 0 1,1 0,-3A3,3 0 0,1 3,0Z" style="opacity: 1; stroke-width: 0px; fill: rgb(0, 58, 107); fill-opacity: 1;"/><path class="point" transform="translate(382.36,139.41)" d="M3,0A3,3 0 1,1 0,-3A3,3 0 0,1 3,0Z" style="opacity: 1; stroke-width: 0px; fill: rgb(0, 58, 107); fill-opacity: 1;"/><path class="point" transform="translate(415.5,137.09)" d="M3,0A3,3 0 1,1 0,-3A3,3 0 0,1 3,0Z" style="opacity: 1; stroke-width: 0px; fill: rgb(0, 58, 107); fill-opacity: 1;"/><path class="point" transform="translate(432.79,141.53)" d="M3,0A3,3 0 1,1 0,-3A3,3 0 0,1 3,0Z" style="opacity: 1; stroke-width: 0px; fill: rgb(0, 58, 107); fill-opacity: 1;"/><path class="point" transform="translate(441.43,145.83)" d="M3,0A3,3 0 1,1 0,-3A3,3 0 0,1 3,0Z" style="opacity: 1; stroke-width: 0px; fill: rgb(0, 58, 107); fill-opacity: 1;"/><path class="point" transform="translate(461.6,136.65)" d="M3,0A3,3 0 1,1 0,-3A3,3 0 0,1 3,0Z" style="opacity: 1; stroke-width: 0px; fill: rgb(0, 58, 107); fill-opacity: 1;"/><path class="point" transform="translate(465.93,142.34)" d="M3,0A3,3 0 1,1 0,-3A3,3 0 0,1 3,0Z" style="opacity: 1; stroke-width: 0px; fill: rgb(0, 58, 107); fill-opacity: 1;"/><path class="point" transform="translate(471.69,132.51)" d="M3,0A3,3 0 1,1 0,-3A3,3 0 0,1 3,0Z" style="opacity: 1; stroke-width: 0px; fill: rgb(0, 58, 107); fill-opacity: 1;"/><path class="point" transform="translate(474.57,150.11)" d="M3,0A3,3 0 1,1 0,-3A3,3 0 0,1 3,0Z" style="opacity: 1; stroke-width: 0px; fill: rgb(0, 58, 107); fill-opacity: 1;"/><path class="point" transform="translate(477.45,145.97)" d="M3,0A3,3 0 1,1 0,-3A3,3 0 0,1 3,0Z" style="opacity: 1; stroke-width: 0px; fill: rgb(0, 58, 107); fill-opacity: 1;"/><path class="point" transform="translate(481.77,131.51)" d="M3,0A3,3 0 1,1 0,-3A3,3 0 0,1 3,0Z" style="opacity: 1; stroke-width: 0px; fill: rgb(0, 58, 107); fill-opacity: 1;"/><path class="point" transform="translate(493.3,141.03)" d="M3,0A3,3 0 1,1 0,-3A3,3 0 0,1 3,0Z" style="opacity: 1; stroke-width: 0px; fill: rgb(0, 58, 107); fill-opacity: 1;"/><path class="point" transform="translate(510.59,145.27)" d="M3,0A3,3 0 1,1 0,-3A3,3 0 0,1 3,0Z" style="opacity: 1; stroke-width: 0px; fill: rgb(0, 58, 107); fill-opacity: 1;"/><path class="point" transform="translate(514.91,141.4)" d="M3,0A3,3 0 1,1 0,-3A3,3 0 0,1 3,0Z" style="opacity: 1; stroke-width: 0px; fill: rgb(0, 58, 107); fill-opacity: 1;"/><path class="point" transform="translate(516.35,139.29)" d="M3,0A3,3 0 1,1 0,-3A3,3 0 0,1 3,0Z" style="opacity: 1; stroke-width: 0px; fill: rgb(0, 58, 107); fill-opacity: 1;"/><path class="point" transform="translate(601.36,136.35)" d="M3,0A3,3 0 1,1 0,-3A3,3 0 0,1 3,0Z" style="opacity: 1; stroke-width: 0px; fill: rgb(0, 58, 107); fill-opacity: 1;"/><path class="point" transform="translate(650.34,138.64)" d="M3,0A3,3 0 1,1 0,-3A3,3 0 0,1 3,0Z" style="opacity: 1; stroke-width: 0px; fill: rgb(0, 58, 107); fill-opacity: 1;"/><path class="point" transform="translate(676.28,140.38)" d="M3,0A3,3 0 1,1 0,-3A3,3 0 0,1 3,0Z" style="opacity: 1; stroke-width: 0px; fill: rgb(0, 58, 107); fill-opacity: 1;"/><path class="point" transform="translate(697.89,142.61)" d="M3,0A3,3 0 1,1 0,-3A3,3 0 0,1 3,0Z" style="opacity: 1; stroke-width: 0px; fill: rgb(0, 58, 107); fill-opacity: 1;"/><path class="point" transform="translate(712.3,139.16)" d="M3,0A3,3 0 1,1 0,-3A3,3 0 0,1 3,0Z" style="opacity: 1; stroke-width: 0px; fill: rgb(0, 58, 107); fill-opacity: 1;"/><path class="point" transform="translate(751.2,140.3)" d="M3,0A3,3 0 1,1 0,-3A3,3 0 0,1 3,0Z" style="opacity: 1; stroke-width: 0px; fill: rgb(0, 58, 107); fill-opacity: 1;"/><path class="point" transform="translate(1000.45,137.35)" d="M3,0A3,3 0 1,1 0,-3A3,3 0 0,1 3,0Z" style="opacity: 1; stroke-width: 0px; fill: rgb(0, 58, 107); fill-opacity: 1;"/></g></g><g class="trace boxes" style="opacity: 1;"><path class="box" d="M365.07,279.9V201.3M312.12,279.9V201.3H670.15V279.9ZM312.12,240.6H233.96M670.15,240.6H1078.25M233.96,260.25V220.95M1078.25,260.25V220.95" style="vector-effect: none; stroke-width: 2px; stroke: rgb(137, 207, 241); stroke-opacity: 1; fill: rgb(137, 207, 241); fill-opacity: 0.5;"/><g class="points"><path class="point" transform="translate(233.96,294.07)" d="M3,0A3,3 0 1,1 0,-3A3,3 0 0,1 3,0Z" style="opacity: 1; stroke-width: 0px; fill: rgb(137, 207, 241); fill-opacity: 1;"/><path class="point" transform="translate(254.13,306.58)" d="M3,0A3,3 0 1,1 0,-3A3,3 0 0,1 3,0Z" style="opacity: 1; stroke-width: 0px; fill: rgb(137, 207, 241); fill-opacity: 1;"/><path class="point" transform="translate(265.66,290.41)" d="M3,0A3,3 0 1,1 0,-3A3,3 0 0,1 3,0Z" style="opacity: 1; stroke-width: 0px; fill: rgb(137, 207, 241); fill-opacity: 1;"/><path class="point" transform="translate(303.12,309.11)" d="M3,0A3,3 0 1,1 0,-3A3,3 0 0,1 3,0Z" style="opacity: 1; stroke-width: 0px; fill: rgb(137, 207, 241); fill-opacity: 1;"/><path class="point" transform="translate(339.14,301.85)" d="M3,0A3,3 0 1,1 0,-3A3,3 0 0,1 3,0Z" style="opacity: 1; stroke-width: 0px; fill: rgb(137, 207, 241); fill-opacity: 1;"/><path class="point" transform="translate(350.67,295.24)" d="M3,0A3,3 0 1,1 0,-3A3,3 0 0,1 3,0Z" style="opacity: 1; stroke-width: 0px; fill: rgb(137, 207, 241); fill-opacity: 1;"/><path class="point" transform="translate(362.19,299.84)" d="M3,0A3,3 0 1,1 0,-3A3,3 0 0,1 3,0Z" style="opacity: 1; stroke-width: 0px; fill: rgb(137, 207, 241); fill-opacity: 1;"/><path class="point" transform="translate(365.07,297.37)" d="M3,0A3,3 0 1,1 0,-3A3,3 0 0,1 3,0Z" style="opacity: 1; stroke-width: 0px; fill: rgb(137, 207, 241); fill-opacity: 1;"/><path class="point" transform="translate(396.77,301.97)" d="M3,0A3,3 0 1,1 0,-3A3,3 0 0,1 3,0Z" style="opacity: 1; stroke-width: 0px; fill: rgb(137, 207, 241); fill-opacity: 1;"/><path class="point" transform="translate(501.95,303.9)" d="M3,0A3,3 0 1,1 0,-3A3,3 0 0,1 3,0Z" style="opacity: 1; stroke-width: 0px; fill: rgb(137, 207, 241); fill-opacity: 1;"/><path class="point" transform="translate(621.53,298.03)" d="M3,0A3,3 0 1,1 0,-3A3,3 0 0,1 3,0Z" style="opacity: 1; stroke-width: 0px; fill: rgb(137, 207, 241); fill-opacity: 1;"/><path class="point" transform="translate(686.36,301.32)" d="M3,0A3,3 0 1,1 0,-3A3,3 0 0,1 3,0Z" style="opacity: 1; stroke-width: 0px; fill: rgb(137, 207, 241); fill-opacity: 1;"/><path class="point" transform="translate(725.26,296.34)" d="M3,0A3,3 0 1,1 0,-3A3,3 0 0,1 3,0Z" style="opacity: 1; stroke-width: 0px; fill: rgb(137, 207, 241); fill-opacity: 1;"/><path class="point" transform="translate(754.08,304.21)" d="M3,0A3,3 0 1,1 0,-3A3,3 0 0,1 3,0Z" style="opacity: 1; stroke-width: 0px; fill: rgb(137, 207, 241); fill-opacity: 1;"/><path class="point" transform="translate(1078.25,302.3)" d="M3,0A3,3 0 1,1 0,-3A3,3 0 0,1 3,0Z" style="opacity: 1; stroke-width: 0px; fill: rgb(137, 207, 241); fill-opacity: 1;"/></g></g><g class="trace boxes" style="opacity: 1;"><path class="box" d="M336.98,440.3V361.7M174.89,440.3V361.7H586.23V440.3ZM174.89,401H157.6M586.23,401H862.14M157.6,420.65V381.35M862.14,420.65V381.35" style="vector-effect: none; stroke-width: 2px; stroke: rgb(68, 132, 174); stroke-opacity: 1; fill: rgb(68, 132, 174); fill-opacity: 0.5;"/><g class="points"><path class="point" transform="translate(157.6,453.83)" d="M3,0A3,3 0 1,1 0,-3A3,3 0 0,1 3,0Z" style="opacity: 1; stroke-width: 0px; fill: rgb(68, 132, 174); fill-opacity: 1;"/><path class="point" transform="translate(166.25,463.96)" d="M3,0A3,3 0 1,1 0,-3A3,3 0 0,1 3,0Z" style="opacity: 1; stroke-width: 0px; fill: rgb(68, 132, 174); fill-opacity: 1;"/><path class="point" transform="translate(166.25,455.2)" d="M3,0A3,3 0 1,1 0,-3A3,3 0 0,1 3,0Z" style="opacity: 1; stroke-width: 0px; fill: rgb(68, 132, 174); fill-opacity: 1;"/><path class="point" transform="translate(170.57,465)" d="M3,0A3,3 0 1,1 0,-3A3,3 0 0,1 3,0Z" style="opacity: 1; stroke-width: 0px; fill: rgb(68, 132, 174); fill-opacity: 1;"/><path class="point" transform="translate(172.01,461.29)" d="M3,0A3,3 0 1,1 0,-3A3,3 0 0,1 3,0Z" style="opacity: 1; stroke-width: 0px; fill: rgb(68, 132, 174); fill-opacity: 1;"/><path class="point" transform="translate(177.77,457.02)" d="M3,0A3,3 0 1,1 0,-3A3,3 0 0,1 3,0Z" style="opacity: 1; stroke-width: 0px; fill: rgb(68, 132, 174); fill-opacity: 1;"/><path class="point" transform="translate(244.05,460.14)" d="M3,0A3,3 0 1,1 0,-3A3,3 0 0,1 3,0Z" style="opacity: 1; stroke-width: 0px; fill: rgb(68, 132, 174); fill-opacity: 1;"/><path class="point" transform="translate(264.22,458.48)" d="M3,0A3,3 0 1,1 0,-3A3,3 0 0,1 3,0Z" style="opacity: 1; stroke-width: 0px; fill: rgb(68, 132, 174); fill-opacity: 1;"/><path class="point" transform="translate(285.83,461.35)" d="M3,0A3,3 0 1,1 0,-3A3,3 0 0,1 3,0Z" style="opacity: 1; stroke-width: 0px; fill: rgb(68, 132, 174); fill-opacity: 1;"/><path class="point" transform="translate(331.94,463.03)" d="M3,0A3,3 0 1,1 0,-3A3,3 0 0,1 3,0Z" style="opacity: 1; stroke-width: 0px; fill: rgb(68, 132, 174); fill-opacity: 1;"/><path class="point" transform="translate(342.02,459.04)" d="M3,0A3,3 0 1,1 0,-3A3,3 0 0,1 3,0Z" style="opacity: 1; stroke-width: 0px; fill: rgb(68, 132, 174); fill-opacity: 1;"/><path class="point" transform="translate(389.57,461.1)" d="M3,0A3,3 0 1,1 0,-3A3,3 0 0,1 3,0Z" style="opacity: 1; stroke-width: 0px; fill: rgb(68, 132, 174); fill-opacity: 1;"/><path class="point" transform="translate(391.01,457.72)" d="M3,0A3,3 0 1,1 0,-3A3,3 0 0,1 3,0Z" style="opacity: 1; stroke-width: 0px; fill: rgb(68, 132, 174); fill-opacity: 1;"/><path class="point" transform="translate(464.49,463.42)" d="M3,0A3,3 0 1,1 0,-3A3,3 0 0,1 3,0Z" style="opacity: 1; stroke-width: 0px; fill: rgb(68, 132, 174); fill-opacity: 1;"/><path class="point" transform="translate(496.18,461.85)" d="M3,0A3,3 0 1,1 0,-3A3,3 0 0,1 3,0Z" style="opacity: 1; stroke-width: 0px; fill: rgb(68, 132, 174); fill-opacity: 1;"/><path class="point" transform="translate(676.28,457.16)" d="M3,0A3,3 0 1,1 0,-3A3,3 0 0,1 3,0Z" style="opacity: 1; stroke-width: 0px; fill: rgb(68, 132, 174); fill-opacity: 1;"/><path class="point" transform="translate(706.53,460.73)" d="M3,0A3,3 0 1,1 0,-3A3,3 0 0,1 3,0Z" style="opacity: 1; stroke-width: 0px; fill: rgb(68, 132, 174); fill-opacity: 1;"/><path class="point" transform="translate(728.14,462.45)" d="M3,0A3,3 0 1,1 0,-3A3,3 0 0,1 3,0Z" style="opacity: 1; stroke-width: 0px; fill: rgb(68, 132, 174); fill-opacity: 1;"/><path class="point" transform="translate(733.91,460.92)" d="M3,0A3,3 0 1,1 0,-3A3,3 0 0,1 3,0Z" style="opacity: 1; stroke-width: 0px; fill: rgb(68, 132, 174); fill-opacity: 1;"/><path class="point" transform="translate(862.14,460.01)" d="M3,0A3,3 0 1,1 0,-3A3,3 0 0,1 3,0Z" style="opacity: 1; stroke-width: 0px; fill: rgb(68, 132, 174); fill-opacity: 1;"/></g></g><g class="trace boxes" style="opacity: 1;"><path class="box" d="M228.2,600.7V522.1M201.19,600.7V522.1H319.33V600.7ZM201.19,561.4H161.93M319.33,561.4H461.6M161.93,581.05V541.75M461.6,581.05V541.75" style="vector-effect: none; stroke-width: 2px; stroke: rgb(137, 207, 241); stroke-opacity: 1; fill: rgb(137, 207, 241); fill-opacity: 0.5;"/><g class="points"><path class="point" transform="translate(161.93,615)" d="M3,0A3,3 0 1,1 0,-3A3,3 0 0,1 3,0Z" style="opacity: 1; stroke-width: 0px; fill: rgb(137, 207, 241); fill-opacity: 1;"/><path class="point" transform="translate(189.3,627.38)" d="M3,0A3,3 0 1,1 0,-3A3,3 0 0,1 3,0Z" style="opacity: 1; stroke-width: 0px; fill: rgb(137, 207, 241); fill-opacity: 1;"/><path class="point" transform="translate(197.94,611.21)" d="M3,0A3,3 0 1,1 0,-3A3,3 0 0,1 3,0Z" style="opacity: 1; stroke-width: 0px; fill: rgb(137, 207, 241); fill-opacity: 1;"/><path class="point" transform="translate(202.27,630.03)" d="M3,0A3,3 0 1,1 0,-3A3,3 0 0,1 3,0Z" style="opacity: 1; stroke-width: 0px; fill: rgb(137, 207, 241); fill-opacity: 1;"/><path class="point" transform="translate(210.91,622.57)" d="M3,0A3,3 0 1,1 0,-3A3,3 0 0,1 3,0Z" style="opacity: 1; stroke-width: 0px; fill: rgb(137, 207, 241); fill-opacity: 1;"/><path class="point" transform="translate(225.32,615.86)" d="M3,0A3,3 0 1,1 0,-3A3,3 0 0,1 3,0Z" style="opacity: 1; stroke-width: 0px; fill: rgb(137, 207, 241); fill-opacity: 1;"/><path class="point" transform="translate(228.2,620.63)" d="M3,0A3,3 0 1,1 0,-3A3,3 0 0,1 3,0Z" style="opacity: 1; stroke-width: 0px; fill: rgb(137, 207, 241); fill-opacity: 1;"/><path class="point" transform="translate(229.64,618.28)" d="M3,0A3,3 0 1,1 0,-3A3,3 0 0,1 3,0Z" style="opacity: 1; stroke-width: 0px; fill: rgb(137, 207, 241); fill-opacity: 1;"/><path class="point" transform="translate(244.05,622.53)" d="M3,0A3,3 0 1,1 0,-3A3,3 0 0,1 3,0Z" style="opacity: 1; stroke-width: 0px; fill: rgb(137, 207, 241); fill-opacity: 1;"/><path class="point" transform="translate(310.32,625.15)" d="M3,0A3,3 0 1,1 0,-3A3,3 0 0,1 3,0Z" style="opacity: 1; stroke-width: 0px; fill: rgb(137, 207, 241); fill-opacity: 1;"/><path class="point" transform="translate(346.34,618.66)" d="M3,0A3,3 0 1,1 0,-3A3,3 0 0,1 3,0Z" style="opacity: 1; stroke-width: 0px; fill: rgb(137, 207, 241); fill-opacity: 1;"/><path class="point" transform="translate(421.26,622.28)" d="M3,0A3,3 0 1,1 0,-3A3,3 0 0,1 3,0Z" style="opacity: 1; stroke-width: 0px; fill: rgb(137, 207, 241); fill-opacity: 1;"/><path class="point" transform="translate(461.6,616.93)" d="M3,0A3,3 0 1,1 0,-3A3,3 0 0,1 3,0Z" style="opacity: 1; stroke-width: 0px; fill: rgb(137, 207, 241); fill-opacity: 1;"/></g></g><g class="trace boxes" style="opacity: 1;"><path class="box" d="M167.69,761.1V682.5M112.58,761.1V682.5H242.61V761.1ZM112.58,721.8H56.75M242.61,721.8H386.68M56.75,741.45V702.15M386.68,741.45V702.15" style="vector-effect: none; stroke-width: 2px; stroke: rgb(137, 207, 241); stroke-opacity: 1; fill: rgb(137, 207, 241); fill-opacity: 0.5;"/><g class="points"><path class="point" transform="translate(56.75,775.41)" d="M3,0A3,3 0 1,1 0,-3A3,3 0 0,1 3,0Z" style="opacity: 1; stroke-width: 0px; fill: rgb(137, 207, 241); fill-opacity: 1;"/><path class="point" transform="translate(107.18,787.84)" d="M3,0A3,3 0 1,1 0,-3A3,3 0 0,1 3,0Z" style="opacity: 1; stroke-width: 0px; fill: rgb(137, 207, 241); fill-opacity: 1;"/><path class="point" transform="translate(111.5,771.61)" d="M3,0A3,3 0 1,1 0,-3A3,3 0 0,1 3,0Z" style="opacity: 1; stroke-width: 0px; fill: rgb(137, 207, 241); fill-opacity: 1;"/><path class="point" transform="translate(112.94,789.72)" d="M3,0A3,3 0 1,1 0,-3A3,3 0 0,1 3,0Z" style="opacity: 1; stroke-width: 0px; fill: rgb(137, 207, 241); fill-opacity: 1;"/><path class="point" transform="translate(157.6,783.4)" d="M3,0A3,3 0 1,1 0,-3A3,3 0 0,1 3,0Z" style="opacity: 1; stroke-width: 0px; fill: rgb(137, 207, 241); fill-opacity: 1;"/><path class="point" transform="translate(164.81,775.29)" d="M3,0A3,3 0 1,1 0,-3A3,3 0 0,1 3,0Z" style="opacity: 1; stroke-width: 0px; fill: rgb(137, 207, 241); fill-opacity: 1;"/><path class="point" transform="translate(167.69,781.09)" d="M3,0A3,3 0 1,1 0,-3A3,3 0 0,1 3,0Z" style="opacity: 1; stroke-width: 0px; fill: rgb(137, 207, 241); fill-opacity: 1;"/><path class="point" transform="translate(172.01,778.1)" d="M3,0A3,3 0 1,1 0,-3A3,3 0 0,1 3,0Z" style="opacity: 1; stroke-width: 0px; fill: rgb(137, 207, 241); fill-opacity: 1;"/><path class="point" transform="translate(219.56,783.51)" d="M3,0A3,3 0 1,1 0,-3A3,3 0 0,1 3,0Z" style="opacity: 1; stroke-width: 0px; fill: rgb(137, 207, 241); fill-opacity: 1;"/><path class="point" transform="translate(233.96,787.3)" d="M3,0A3,3 0 1,1 0,-3A3,3 0 0,1 3,0Z" style="opacity: 1; stroke-width: 0px; fill: rgb(137, 207, 241); fill-opacity: 1;"/><path class="point" transform="translate(268.54,778.48)" d="M3,0A3,3 0 1,1 0,-3A3,3 0 0,1 3,0Z" style="opacity: 1; stroke-width: 0px; fill: rgb(137, 207, 241); fill-opacity: 1;"/><path class="point" transform="translate(380.92,783.35)" d="M3,0A3,3 0 1,1 0,-3A3,3 0 0,1 3,0Z" style="opacity: 1; stroke-width: 0px; fill: rgb(137, 207, 241); fill-opacity: 1;"/><path class="point" transform="translate(386.68,776.12)" d="M3,0A3,3 0 1,1 0,-3A3,3 0 0,1 3,0Z" style="opacity: 1; stroke-width: 0px; fill: rgb(137, 207, 241); fill-opacity: 1;"/></g></g></g></g></g><g class="zerolinelayer-above"/><path class="xlines-above crisp" d="M402,906.5H1540" style="fill: none; stroke-width: 3px; stroke: rgb(204, 204, 204); stroke-opacity: 1;"/><path class="ylines-above crisp" d="M403.5,100V905" style="fill: none; stroke-width: 3px; stroke: rgb(204, 204, 204); stroke-opacity: 1;"/><g class="overlines-above"/><g class="xaxislayer-above"><g class="xtick"><text text-anchor="middle" x="0" y="941.6" transform="translate(630.3199999999999,0)" style="font-family: 'Helvetica Neue'; font-size: 28px; fill: rgb(42, 63, 95); fill-opacity: 1; font-weight: bold; white-space: pre;">0</text></g><g class="xtick"><text text-anchor="middle" x="0" y="941.6" style="font-family: 'Helvetica Neue'; font-size: 28px; fill: rgb(42, 63, 95); fill-opacity: 1; font-weight: bold; white-space: pre;" transform="translate(918.47,0)">2</text></g><g class="xtick"><text text-anchor="middle" x="0" y="941.6" style="font-family: 'Helvetica Neue'; font-size: 28px; fill: rgb(42, 63, 95); fill-opacity: 1; font-weight: bold; white-space: pre;" transform="translate(1206.62,0)">4</text></g><g class="xtick"><text text-anchor="middle" x="0" y="941.6" style="font-family: 'Helvetica Neue'; font-size: 28px; fill: rgb(42, 63, 95); fill-opacity: 1; font-weight: bold; white-space: pre;" transform="translate(1494.78,0)">6</text></g></g><g class="yaxislayer-above"><g class="ytick"><text text-anchor="end" x="396.4" y="9.799999999999999" transform="translate(0,821.8)" style="font-family: 'Helvetica Neue'; font-size: 28px; fill: rgb(42, 63, 95); fill-opacity: 1; font-weight: bold; white-space: pre;">JosiphosSL-J009-1 Pd G3</text></g><g class="ytick"><text text-anchor="end" x="396.4" y="9.799999999999999" transform="translate(0,661.4)" style="font-family: 'Helvetica Neue'; font-size: 28px; fill: rgb(42, 63, 95); fill-opacity: 1; font-weight: bold; white-space: pre;">meCgPPh Pd G3</text></g><g class="ytick"><text text-anchor="end" x="396.4" y="9.799999999999999" transform="translate(0,501)" style="font-family: 'Helvetica Neue'; font-size: 28px; fill: rgb(42, 63, 95); fill-opacity: 1; font-weight: bold; white-space: pre;">XantPhos Pd(allyl)Cl</text></g><g class="ytick"><text text-anchor="end" x="396.4" y="9.799999999999999" transform="translate(0,340.6)" style="font-family: 'Helvetica Neue'; font-size: 28px; fill: rgb(42, 63, 95); fill-opacity: 1; font-weight: bold; white-space: pre;">Pd(OAc)2</text></g><g class="ytick"><text text-anchor="end" x="396.4" y="9.799999999999999" transform="translate(0,180.2)" style="font-family: 'Helvetica Neue'; font-size: 28px; fill: rgb(42, 63, 95); fill-opacity: 1; font-weight: bold; white-space: pre;">XantPhosPdCl2</text></g></g><g class="overaxes-above"/></g></g><g class="polarlayer"/><g class="smithlayer"/><g class="ternarylayer"/><g class="geolayer"/><g class="funnelarealayer"/><g class="pielayer"/><g class="iciclelayer"/><g class="treemaplayer"/><g class="sunburstlayer"/><g class="glimages"/><defs id="topdefs-b8208b"><g class="clips"/></defs><g class="layer-above"><g class="imagelayer"/><g class="shapelayer"/></g><g class="infolayer"><g class="g-gtitle"><text class="gtitle" x="80" y="50" text-anchor="start" dy="0em" style="opacity: 1; font-family: 'Helvetica Neue'; font-size: 48px; fill: rgb(29, 29, 31); fill-opacity: 1; white-space: pre;">CH-Activation - Boxplot of z-Score by Catalyst</text></g><g class="g-xtitle"><text class="xtitle" x="972.5" y="986.299609375" text-anchor="middle" style="opacity: 1; font-family: 'Helvetica Neue'; font-size: 36px; fill: rgb(42, 63, 95); fill-opacity: 1; font-weight: bold; white-space: pre;">z-Score</text></g><g class="g-ytitle" transform="translate(9.07421875,0)"><text class="ytitle" transform="rotate(-90,25.925390624999977,502.5)" x="25.925390624999977" y="502.5" text-anchor="middle" style="opacity: 1; font-family: 'Helvetica Neue'; font-size: 36px; fill: rgb(42, 63, 95); fill-opacity: 1; font-weight: bold; white-space: pre;">Catalyst</text></g></g></svg>