<svg class="main-svg" xmlns="http://www.w3.org/2000/svg" xmlns:xlink="http://www.w3.org/1999/xlink" width="1600" height="1000" style="" viewBox="0 0 1600 1000"><rect x="0" y="0" width="1600" height="1000" style="fill: rgb(255, 255, 255); fill-opacity: 1;"/><defs id="defs-d9f669"><g class="clips"><clipPath id="clipd9f669xyplot" class="plotclip"><rect width="1372" height="805"/></clipPath><clipPath class="axesclip" id="clipd9f669x"><rect x="168" y="0" width="1372" height="1000"/></clipPath><clipPath class="axesclip" id="clipd9f669y"><rect x="0" y="100" width="1600" height="805"/></clipPath><clipPath class="axesclip" id="clipd9f669xy"><rect x="168" y="100" width="1372" height="805"/></clipPath></g><g class="gradients"/><g class="patterns"/></defs><g class="bglayer"/><g class="layer-below"><g class="imagelayer"/><g class="shapelayer"/></g><g class="cartesianlayer"><g class="subplot xy"><g class="layer-subplot"><g class="shapelayer"/><g class="imagelayer"/></g><g class="minor-gridlayer"><g class="x"/><g class="y"/></g><g class="gridlayer"><g class="x"><path class="xgrid crisp" transform="translate(357.2,0)" d="M0,100v805" style="stroke: rgb(208, 208, 208); stroke-opacity: 1; stroke-width: 2px;"/><path class="xgrid crisp" transform="translate(631.3,0)" d="M0,100v805" style="stroke: rgb(208, 208, 208); stroke-opacity: 1; stroke-width: 2px;"/><path class="xgrid crisp" transform="translate(905.39,0)" d="M0,100v805" style="stroke: rgb(208, 208, 208); stroke-opacity: 1; stroke-width: 2px;"/><path class="xgrid crisp" transform="translate(1179.49,0)" d="M0,100v805" style="stroke: rgb(208, 208, 208); stroke-opacity: 1; stroke-width: 2px;"/><path class="xgrid crisp" transform="translate(1453.58,0)" d="M0,100v805" style="stroke: rgb(208, 208, 208); stroke-opacity: 1; stroke-width: 2px;"/></g><g class="y"/></g><g class="zerolinelayer"/><g class="layer-between"><g class="shapelayer"/><g class="imagelayer"/></g><path class="xlines-below"/><path class="ylines-below"/><g class="overlines-below"/><g class="xaxislayer-below"/><g class="yaxislayer-below"/><g class="overaxes-below"/><g class="overplot"><g class="xy" transform="translate(168,100)" clip-path="url(#clipd9f669xyplot)"><g class="boxlayer mlayer"><g class="trace boxes" style="opacity: 1;"><path class="box" d="M438.63,119.5V40.9M309.12,119.5V40.9H577.05V119.5ZM309.12,80.2H83.68M577.05,80.2H699.02M83.68,99.85V60.55M699.02,99.85V60.55" style="vector-effect: none; stroke-width: 2px; stroke: rgb(204, 85, 0); stroke-opacity: 1; fill: rgb(204, 85, 0); fill-opacity: 0.5;"/><g class="points"><path class="point" transform="translate(83.68,135.9)" d="M3,0A3,3 0 1,1 0,-3A3,3 0 0,1 3,0Z" style="opacity: 1; stroke-width: 0px; fill: rgb(204, 85, 0); fill-opacity: 1;"/><path class="point" transform="translate(160.42,143.01)" d="M3,0A3,3 0 1,1 0,-3A3,3 0 0,1 3,0Z" style="opacity: 1; stroke-width: 0px; fill: rgb(204, 85, 0); fill-opacity: 1;"/><path class="point" transform="translate(160.42,134.24)" d="M3,0A3,3 0 1,1 0,-3A3,3 0 0,1 3,0Z" style="opacity: 1; stroke-width: 0px; fill: rgb(204, 85, 0); fill-opacity: 1;"/><path class="point" transform="translate(160.42,144.83)" d="M3,0A3,3 0 1,1 0,-3A3,3 0 0,1 3,0Z" style="opacity: 1; stroke-width: 0px; fill: rgb(204, 85, 0); fill-opacity: 1;"/><path class="point" transform="translate(198.8,140.88)" d="M3,0A3,3 0 1,1 0,-3A3,3 0 0,1 3,0Z" style="opacity: 1; stroke-width: 0px; fill: rgb(204, 85, 0); fill-opacity: 1;"/><path class="point" transform="translate(246.76,135.27)" d="M3,0A3,3 0 1,1 0,-3A3,3 0 0,1 3,0Z" style="opacity: 1; stroke-width: 0px; fill: rgb(204, 85, 0); fill-opacity: 1;"/><path class="point" transform="translate(291.99,139.46)" d="M3,0A3,3 0 1,1 0,-3A3,3 0 0,1 3,0Z" style="opacity: 1; stroke-width: 0px; fill: rgb(204, 85, 0); fill-opacity: 1;"/><path class="point" transform="translate(307.06,136.79)" d="M3,0A3,3 0 1,1 0,-3A3,3 0 0,1 3,0Z" style="opacity: 1; stroke-width: 0px; fill: rgb(204, 85, 0); fill-opacity: 1;"/><path class="point" transform="translate(309.8,141.64)" d="M3,0A3,3 0 1,1 0,-3A3,3 0 0,1 3,0Z" style="opacity: 1; stroke-width: 0px; fill: rgb(204, 85, 0); fill-opacity: 1;"/><path class="point" transform="translate(315.29,145.42)" d="M3,0A3,3 0 1,1 0,-3A3,3 0 0,1 3,0Z" style="opacity: 1; stroke-width: 0px; fill: rgb(204, 85, 0); fill-opacity: 1;"/><path class="point" transform="translate(318.03,136.62)" d="M3,0A3,3 0 1,1 0,-3A3,3 0 0,1 3,0Z" style="opacity: 1; stroke-width: 0px; fill: rgb(204, 85, 0); fill-opacity: 1;"/><path class="point" transform="translate(342.7,142.22)" d="M3,0A3,3 0 1,1 0,-3A3,3 0 0,1 3,0Z" style="opacity: 1; stroke-width: 0px; fill: rgb(204, 85, 0); fill-opacity: 1;"/><path class="point" transform="translate(353.66,134.03)" d="M3,0A3,3 0 1,1 0,-3A3,3 0 0,1 3,0Z" style="opacity: 1; stroke-width: 0px; fill: rgb(204, 85, 0); fill-opacity: 1;"/><path class="point" transform="translate(368.73,147.03)" d="M3,0A3,3 0 1,1 0,-3A3,3 0 0,1 3,0Z" style="opacity: 1; stroke-width: 0px; fill: rgb(204, 85, 0); fill-opacity: 1;"/><path class="point" transform="translate(372.85,143.85)" d="M3,0A3,3 0 1,1 0,-3A3,3 0 0,1 3,0Z" style="opacity: 1; stroke-width: 0px; fill: rgb(204, 85, 0); fill-opacity: 1;"/><path class="point" transform="translate(389.29,132.2)" d="M3,0A3,3 0 1,1 0,-3A3,3 0 0,1 3,0Z" style="opacity: 1; stroke-width: 0px; fill: rgb(204, 85, 0); fill-opacity: 1;"/><path class="point" transform="translate(438.63,141.05)" d="M3,0A3,3 0 1,1 0,-3A3,3 0 0,1 3,0Z" style="opacity: 1; stroke-width: 0px; fill: rgb(204, 85, 0); fill-opacity: 1;"/><path class="point" transform="translate(503.04,145.8)" d="M3,0A3,3 0 1,1 0,-3A3,3 0 0,1 3,0Z" style="opacity: 1; stroke-width: 0px; fill: rgb(204, 85, 0); fill-opacity: 1;"/><path class="point" transform="translate(504.41,141.76)" d="M3,0A3,3 0 1,1 0,-3A3,3 0 0,1 3,0Z" style="opacity: 1; stroke-width: 0px; fill: rgb(204, 85, 0); fill-opacity: 1;"/><path class="point" transform="translate(508.52,139.32)" d="M3,0A3,3 0 1,1 0,-3A3,3 0 0,1 3,0Z" style="opacity: 1; stroke-width: 0px; fill: rgb(204, 85, 0); fill-opacity: 1;"/><path class="point" transform="translate(524.97,135.48)" d="M3,0A3,3 0 1,1 0,-3A3,3 0 0,1 3,0Z" style="opacity: 1; stroke-width: 0px; fill: rgb(204, 85, 0); fill-opacity: 1;"/><path class="point" transform="translate(564.71,138.1)" d="M3,0A3,3 0 1,1 0,-3A3,3 0 0,1 3,0Z" style="opacity: 1; stroke-width: 0px; fill: rgb(204, 85, 0); fill-opacity: 1;"/><path class="point" transform="translate(566.08,142.47)" d="M3,0A3,3 0 1,1 0,-3A3,3 0 0,1 3,0Z" style="opacity: 1; stroke-width: 0px; fill: rgb(204, 85, 0); fill-opacity: 1;"/><path class="point" transform="translate(572.94,148.28)" d="M3,0A3,3 0 1,1 0,-3A3,3 0 0,1 3,0Z" style="opacity: 1; stroke-width: 0px; fill: rgb(204, 85, 0); fill-opacity: 1;"/><path class="point" transform="translate(575.68,139.18)" d="M3,0A3,3 0 1,1 0,-3A3,3 0 0,1 3,0Z" style="opacity: 1; stroke-width: 0px; fill: rgb(204, 85, 0); fill-opacity: 1;"/><path class="point" transform="translate(581.16,141.98)" d="M3,0A3,3 0 1,1 0,-3A3,3 0 0,1 3,0Z" style="opacity: 1; stroke-width: 0px; fill: rgb(204, 85, 0); fill-opacity: 1;"/><path class="point" transform="translate(581.16,134.61)" d="M3,0A3,3 0 1,1 0,-3A3,3 0 0,1 3,0Z" style="opacity: 1; stroke-width: 0px; fill: rgb(204, 85, 0); fill-opacity: 1;"/><path class="point" transform="translate(594.86,140.02)" d="M3,0A3,3 0 1,1 0,-3A3,3 0 0,1 3,0Z" style="opacity: 1; stroke-width: 0px; fill: rgb(204, 85, 0); fill-opacity: 1;"/><path class="point" transform="translate(611.31,145.39)" d="M3,0A3,3 0 1,1 0,-3A3,3 0 0,1 3,0Z" style="opacity: 1; stroke-width: 0px; fill: rgb(204, 85, 0); fill-opacity: 1;"/><path class="point" transform="translate(631.87,147.64)" d="M3,0A3,3 0 1,1 0,-3A3,3 0 0,1 3,0Z" style="opacity: 1; stroke-width: 0px; fill: rgb(204, 85, 0); fill-opacity: 1;"/><path class="point" transform="translate(660.65,134.24)" d="M3,0A3,3 0 1,1 0,-3A3,3 0 0,1 3,0Z" style="opacity: 1; stroke-width: 0px; fill: rgb(204, 85, 0); fill-opacity: 1;"/><path class="point" transform="translate(699.02,146.03)" d="M3,0A3,3 0 1,1 0,-3A3,3 0 0,1 3,0Z" style="opacity: 1; stroke-width: 0px; fill: rgb(204, 85, 0); fill-opacity: 1;"/><path class="point" transform="translate(699.02,134.5)" d="M3,0A3,3 0 1,1 0,-3A3,3 0 0,1 3,0Z" style="opacity: 1; stroke-width: 0px; fill: rgb(204, 85, 0); fill-opacity: 1;"/></g></g><g class="trace boxes" style="opacity: 1;"><path class="box" d="M339.95,279.9V201.3M294.73,279.9V201.3H417.04V279.9ZM294.73,240.6H134.38M417.04,240.6H467.41M134.38,260.25V220.95M467.41,260.25V220.95" style="vector-effect: none; stroke-width: 2px; stroke: rgb(255, 179, 71); stroke-opacity: 1; fill: rgb(255, 179, 71); fill-opacity: 0.5;"/><g class="points"><path class="point" transform="translate(134.38,295.34)" d="M3,0A3,3 0 1,1 0,-3A3,3 0 0,1 3,0Z" style="opacity: 1; stroke-width: 0px; fill: rgb(255, 179, 71); fill-opacity: 1;"/><path class="point" transform="translate(242.65,304.78)" d="M3,0A3,3 0 1,1 0,-3A3,3 0 0,1 3,0Z" style="opacity: 1; stroke-width: 0px; fill: rgb(255, 179, 71); fill-opacity: 1;"/><path class="point" transform="translate(271.43,292.76)" d="M3,0A3,3 0 1,1 0,-3A3,3 0 0,1 3,0Z" style="opacity: 1; stroke-width: 0px; fill: rgb(255, 179, 71); fill-opacity: 1;"/><path class="point" transform="translate(291.99,307.09)" d="M3,0A3,3 0 1,1 0,-3A3,3 0 0,1 3,0Z" style="opacity: 1; stroke-width: 0px; fill: rgb(255, 179, 71); fill-opacity: 1;"/><path class="point" transform="translate(302.95,301.83)" d="M3,0A3,3 0 1,1 0,-3A3,3 0 0,1 3,0Z" style="opacity: 1; stroke-width: 0px; fill: rgb(255, 179, 71); fill-opacity: 1;"/><path class="point" transform="translate(305.69,294.45)" d="M3,0A3,3 0 1,1 0,-3A3,3 0 0,1 3,0Z" style="opacity: 1; stroke-width: 0px; fill: rgb(255, 179, 71); fill-opacity: 1;"/><path class="point" transform="translate(334.47,299.95)" d="M3,0A3,3 0 1,1 0,-3A3,3 0 0,1 3,0Z" style="opacity: 1; stroke-width: 0px; fill: rgb(255, 179, 71); fill-opacity: 1;"/><path class="point" transform="translate(339.95,296.13)" d="M3,0A3,3 0 1,1 0,-3A3,3 0 0,1 3,0Z" style="opacity: 1; stroke-width: 0px; fill: rgb(255, 179, 71); fill-opacity: 1;"/><path class="point" transform="translate(360.51,303.25)" d="M3,0A3,3 0 1,1 0,-3A3,3 0 0,1 3,0Z" style="opacity: 1; stroke-width: 0px; fill: rgb(255, 179, 71); fill-opacity: 1;"/><path class="point" transform="translate(370.1,308.12)" d="M3,0A3,3 0 1,1 0,-3A3,3 0 0,1 3,0Z" style="opacity: 1; stroke-width: 0px; fill: rgb(255, 179, 71); fill-opacity: 1;"/><path class="point" transform="translate(372.85,296.56)" d="M3,0A3,3 0 1,1 0,-3A3,3 0 0,1 3,0Z" style="opacity: 1; stroke-width: 0px; fill: rgb(255, 179, 71); fill-opacity: 1;"/><path class="point" transform="translate(431.78,303.37)" d="M3,0A3,3 0 1,1 0,-3A3,3 0 0,1 3,0Z" style="opacity: 1; stroke-width: 0px; fill: rgb(255, 179, 71); fill-opacity: 1;"/><path class="point" transform="translate(433.15,292.5)" d="M3,0A3,3 0 1,1 0,-3A3,3 0 0,1 3,0Z" style="opacity: 1; stroke-width: 0px; fill: rgb(255, 179, 71); fill-opacity: 1;"/><path class="point" transform="translate(459.19,310.48)" d="M3,0A3,3 0 1,1 0,-3A3,3 0 0,1 3,0Z" style="opacity: 1; stroke-width: 0px; fill: rgb(255, 179, 71); fill-opacity: 1;"/><path class="point" transform="translate(467.41,305.76)" d="M3,0A3,3 0 1,1 0,-3A3,3 0 0,1 3,0Z" style="opacity: 1; stroke-width: 0px; fill: rgb(255, 179, 71); fill-opacity: 1;"/></g></g><g class="trace boxes" style="opacity: 1;"><path class="box" d="M324.88,440.3V361.7M193.66,440.3V361.7H634.61V440.3ZM193.66,401H71.34M634.61,401H1255.43M71.34,420.65V381.35M1255.43,420.65V381.35" style="vector-effect: none; stroke-width: 2px; stroke: rgb(255, 179, 71); stroke-opacity: 1; fill: rgb(255, 179, 71); fill-opacity: 0.5;"/><g class="points"><path class="point" transform="translate(71.34,454.36)" d="M3,0A3,3 0 1,1 0,-3A3,3 0 0,1 3,0Z" style="opacity: 1; stroke-width: 0px; fill: rgb(255, 179, 71); fill-opacity: 1;"/><path class="point" transform="translate(85.05,467.46)" d="M3,0A3,3 0 1,1 0,-3A3,3 0 0,1 3,0Z" style="opacity: 1; stroke-width: 0px; fill: rgb(255, 179, 71); fill-opacity: 1;"/><path class="point" transform="translate(126.16,451.21)" d="M3,0A3,3 0 1,1 0,-3A3,3 0 0,1 3,0Z" style="opacity: 1; stroke-width: 0px; fill: rgb(255, 179, 71); fill-opacity: 1;"/><path class="point" transform="translate(168.64,468.88)" d="M3,0A3,3 0 1,1 0,-3A3,3 0 0,1 3,0Z" style="opacity: 1; stroke-width: 0px; fill: rgb(255, 179, 71); fill-opacity: 1;"/><path class="point" transform="translate(268.69,462.57)" d="M3,0A3,3 0 1,1 0,-3A3,3 0 0,1 3,0Z" style="opacity: 1; stroke-width: 0px; fill: rgb(255, 179, 71); fill-opacity: 1;"/><path class="point" transform="translate(270.06,455.09)" d="M3,0A3,3 0 1,1 0,-3A3,3 0 0,1 3,0Z" style="opacity: 1; stroke-width: 0px; fill: rgb(255, 179, 71); fill-opacity: 1;"/><path class="point" transform="translate(270.06,460.29)" d="M3,0A3,3 0 1,1 0,-3A3,3 0 0,1 3,0Z" style="opacity: 1; stroke-width: 0px; fill: rgb(255, 179, 71); fill-opacity: 1;"/><path class="point" transform="translate(324.88,457.25)" d="M3,0A3,3 0 1,1 0,-3A3,3 0 0,1 3,0Z" style="opacity: 1; stroke-width: 0px; fill: rgb(255, 179, 71); fill-opacity: 1;"/><path class="point" transform="translate(401.63,462.02)" d="M3,0A3,3 0 1,1 0,-3A3,3 0 0,1 3,0Z" style="opacity: 1; stroke-width: 0px; fill: rgb(255, 179, 71); fill-opacity: 1;"/><path class="point" transform="translate(437.26,464.84)" d="M3,0A3,3 0 1,1 0,-3A3,3 0 0,1 3,0Z" style="opacity: 1; stroke-width: 0px; fill: rgb(255, 179, 71); fill-opacity: 1;"/><path class="point" transform="translate(609.94,458.25)" d="M3,0A3,3 0 1,1 0,-3A3,3 0 0,1 3,0Z" style="opacity: 1; stroke-width: 0px; fill: rgb(255, 179, 71); fill-opacity: 1;"/><path class="point" transform="translate(642.83,461.91)" d="M3,0A3,3 0 1,1 0,-3A3,3 0 0,1 3,0Z" style="opacity: 1; stroke-width: 0px; fill: rgb(255, 179, 71); fill-opacity: 1;"/><path class="point" transform="translate(657.91,456.31)" d="M3,0A3,3 0 1,1 0,-3A3,3 0 0,1 3,0Z" style="opacity: 1; stroke-width: 0px; fill: rgb(255, 179, 71); fill-opacity: 1;"/><path class="point" transform="translate(1255.43,465.33)" d="M3,0A3,3 0 1,1 0,-3A3,3 0 0,1 3,0Z" style="opacity: 1; stroke-width: 0px; fill: rgb(255, 179, 71); fill-opacity: 1;"/><path class="point" transform="translate(1303.4,462.93)" d="M3,0A3,3 0 1,1 0,-3A3,3 0 0,1 3,0Z" style="opacity: 1; stroke-width: 0px; fill: rgb(255, 179, 71); fill-opacity: 1;"/></g></g><g class="trace boxes" style="opacity: 1;"><path class="box" d="M308.43,600.7V522.1M172.76,600.7V522.1H508.52V600.7ZM172.76,561.4H68.6M508.52,561.4H585.27M68.6,581.05V541.75M585.27,581.05V541.75" style="vector-effect: none; stroke-width: 2px; stroke: rgb(212, 100, 11); stroke-opacity: 1; fill: rgb(212, 100, 11); fill-opacity: 0.5;"/><g class="points"><path class="point" transform="translate(68.6,615.93)" d="M3,0A3,3 0 1,1 0,-3A3,3 0 0,1 3,0Z" style="opacity: 1; stroke-width: 0px; fill: rgb(212, 100, 11); fill-opacity: 1;"/><path class="point" transform="translate(68.6,626.09)" d="M3,0A3,3 0 1,1 0,-3A3,3 0 0,1 3,0Z" style="opacity: 1; stroke-width: 0px; fill: rgb(212, 100, 11); fill-opacity: 1;"/><path class="point" transform="translate(90.53,613.01)" d="M3,0A3,3 0 1,1 0,-3A3,3 0 0,1 3,0Z" style="opacity: 1; stroke-width: 0px; fill: rgb(212, 100, 11); fill-opacity: 1;"/><path class="point" transform="translate(113.83,628.8)" d="M3,0A3,3 0 1,1 0,-3A3,3 0 0,1 3,0Z" style="opacity: 1; stroke-width: 0px; fill: rgb(212, 100, 11); fill-opacity: 1;"/><path class="point" transform="translate(160.42,622.53)" d="M3,0A3,3 0 1,1 0,-3A3,3 0 0,1 3,0Z" style="opacity: 1; stroke-width: 0px; fill: rgb(212, 100, 11); fill-opacity: 1;"/><path class="point" transform="translate(160.42,615.72)" d="M3,0A3,3 0 1,1 0,-3A3,3 0 0,1 3,0Z" style="opacity: 1; stroke-width: 0px; fill: rgb(212, 100, 11); fill-opacity: 1;"/><path class="point" transform="translate(167.27,620.65)" d="M3,0A3,3 0 1,1 0,-3A3,3 0 0,1 3,0Z" style="opacity: 1; stroke-width: 0px; fill: rgb(212, 100, 11); fill-opacity: 1;"/><path class="point" transform="translate(172.76,617.86)" d="M3,0A3,3 0 1,1 0,-3A3,3 0 0,1 3,0Z" style="opacity: 1; stroke-width: 0px; fill: rgb(212, 100, 11); fill-opacity: 1;"/><path class="point" transform="translate(175.5,623.28)" d="M3,0A3,3 0 1,1 0,-3A3,3 0 0,1 3,0Z" style="opacity: 1; stroke-width: 0px; fill: rgb(212, 100, 11); fill-opacity: 1;"/><path class="point" transform="translate(220.72,627.44)" d="M3,0A3,3 0 1,1 0,-3A3,3 0 0,1 3,0Z" style="opacity: 1; stroke-width: 0px; fill: rgb(212, 100, 11); fill-opacity: 1;"/><path class="point" transform="translate(239.91,617.86)" d="M3,0A3,3 0 1,1 0,-3A3,3 0 0,1 3,0Z" style="opacity: 1; stroke-width: 0px; fill: rgb(212, 100, 11); fill-opacity: 1;"/><path class="point" transform="translate(267.32,623.19)" d="M3,0A3,3 0 1,1 0,-3A3,3 0 0,1 3,0Z" style="opacity: 1; stroke-width: 0px; fill: rgb(212, 100, 11); fill-opacity: 1;"/><path class="point" transform="translate(271.43,615.97)" d="M3,0A3,3 0 1,1 0,-3A3,3 0 0,1 3,0Z" style="opacity: 1; stroke-width: 0px; fill: rgb(212, 100, 11); fill-opacity: 1;"/><path class="point" transform="translate(271.43,626.91)" d="M3,0A3,3 0 1,1 0,-3A3,3 0 0,1 3,0Z" style="opacity: 1; stroke-width: 0px; fill: rgb(212, 100, 11); fill-opacity: 1;"/><path class="point" transform="translate(302.95,624.55)" d="M3,0A3,3 0 1,1 0,-3A3,3 0 0,1 3,0Z" style="opacity: 1; stroke-width: 0px; fill: rgb(212, 100, 11); fill-opacity: 1;"/><path class="point" transform="translate(313.92,613.91)" d="M3,0A3,3 0 1,1 0,-3A3,3 0 0,1 3,0Z" style="opacity: 1; stroke-width: 0px; fill: rgb(212, 100, 11); fill-opacity: 1;"/><path class="point" transform="translate(345.44,622.21)" d="M3,0A3,3 0 1,1 0,-3A3,3 0 0,1 3,0Z" style="opacity: 1; stroke-width: 0px; fill: rgb(212, 100, 11); fill-opacity: 1;"/><path class="point" transform="translate(452.33,626.78)" d="M3,0A3,3 0 1,1 0,-3A3,3 0 0,1 3,0Z" style="opacity: 1; stroke-width: 0px; fill: rgb(212, 100, 11); fill-opacity: 1;"/><path class="point" transform="translate(468.78,622.74)" d="M3,0A3,3 0 1,1 0,-3A3,3 0 0,1 3,0Z" style="opacity: 1; stroke-width: 0px; fill: rgb(212, 100, 11); fill-opacity: 1;"/><path class="point" transform="translate(472.89,620.51)" d="M3,0A3,3 0 1,1 0,-3A3,3 0 0,1 3,0Z" style="opacity: 1; stroke-width: 0px; fill: rgb(212, 100, 11); fill-opacity: 1;"/><path class="point" transform="translate(492.08,616.86)" d="M3,0A3,3 0 1,1 0,-3A3,3 0 0,1 3,0Z" style="opacity: 1; stroke-width: 0px; fill: rgb(212, 100, 11); fill-opacity: 1;"/><path class="point" transform="translate(508.52,619.46)" d="M3,0A3,3 0 1,1 0,-3A3,3 0 0,1 3,0Z" style="opacity: 1; stroke-width: 0px; fill: rgb(212, 100, 11); fill-opacity: 1;"/><path class="point" transform="translate(508.52,623.35)" d="M3,0A3,3 0 1,1 0,-3A3,3 0 0,1 3,0Z" style="opacity: 1; stroke-width: 0px; fill: rgb(212, 100, 11); fill-opacity: 1;"/><path class="point" transform="translate(526.34,629.45)" d="M3,0A3,3 0 1,1 0,-3A3,3 0 0,1 3,0Z" style="opacity: 1; stroke-width: 0px; fill: rgb(212, 100, 11); fill-opacity: 1;"/><path class="point" transform="translate(531.82,620.38)" d="M3,0A3,3 0 1,1 0,-3A3,3 0 0,1 3,0Z" style="opacity: 1; stroke-width: 0px; fill: rgb(212, 100, 11); fill-opacity: 1;"/><path class="point" transform="translate(535.93,623.66)" d="M3,0A3,3 0 1,1 0,-3A3,3 0 0,1 3,0Z" style="opacity: 1; stroke-width: 0px; fill: rgb(212, 100, 11); fill-opacity: 1;"/><path class="point" transform="translate(555.12,614.86)" d="M3,0A3,3 0 1,1 0,-3A3,3 0 0,1 3,0Z" style="opacity: 1; stroke-width: 0px; fill: rgb(212, 100, 11); fill-opacity: 1;"/><path class="point" transform="translate(570.19,621.33)" d="M3,0A3,3 0 1,1 0,-3A3,3 0 0,1 3,0Z" style="opacity: 1; stroke-width: 0px; fill: rgb(212, 100, 11); fill-opacity: 1;"/><path class="point" transform="translate(581.16,627.97)" d="M3,0A3,3 0 1,1 0,-3A3,3 0 0,1 3,0Z" style="opacity: 1; stroke-width: 0px; fill: rgb(212, 100, 11); fill-opacity: 1;"/><path class="point" transform="translate(585.27,630.77)" d="M3,0A3,3 0 1,1 0,-3A3,3 0 0,1 3,0Z" style="opacity: 1; stroke-width: 0px; fill: rgb(212, 100, 11); fill-opacity: 1;"/></g></g><g class="trace boxes" style="opacity: 1;"><path class="box" d="M210.44,761.1V682.5M194.68,761.1V682.5H434.52V761.1ZM194.68,721.8H135.75M434.52,721.8H563.34M135.75,741.45V702.15M563.34,741.45V702.15" style="vector-effect: none; stroke-width: 2px; stroke: rgb(246, 163, 59); stroke-opacity: 1; fill: rgb(246, 163, 59); fill-opacity: 0.5;"/><g class="points"><path class="point" transform="translate(135.75,775.71)" d="M3,0A3,3 0 1,1 0,-3A3,3 0 0,1 3,0Z" style="opacity: 1; stroke-width: 0px; fill: rgb(246, 163, 59); fill-opacity: 1;"/><path class="point" transform="translate(150.83,787.18)" d="M3,0A3,3 0 1,1 0,-3A3,3 0 0,1 3,0Z" style="opacity: 1; stroke-width: 0px; fill: rgb(246, 163, 59); fill-opacity: 1;"/><path class="point" transform="translate(157.68,772.46)" d="M3,0A3,3 0 1,1 0,-3A3,3 0 0,1 3,0Z" style="opacity: 1; stroke-width: 0px; fill: rgb(246, 163, 59); fill-opacity: 1;"/><path class="point" transform="translate(189.2,790.23)" d="M3,0A3,3 0 1,1 0,-3A3,3 0 0,1 3,0Z" style="opacity: 1; stroke-width: 0px; fill: rgb(246, 163, 59); fill-opacity: 1;"/><path class="point" transform="translate(194.68,783.65)" d="M3,0A3,3 0 1,1 0,-3A3,3 0 0,1 3,0Z" style="opacity: 1; stroke-width: 0px; fill: rgb(246, 163, 59); fill-opacity: 1;"/><path class="point" transform="translate(197.42,775.27)" d="M3,0A3,3 0 1,1 0,-3A3,3 0 0,1 3,0Z" style="opacity: 1; stroke-width: 0px; fill: rgb(246, 163, 59); fill-opacity: 1;"/><path class="point" transform="translate(204.28,781.04)" d="M3,0A3,3 0 1,1 0,-3A3,3 0 0,1 3,0Z" style="opacity: 1; stroke-width: 0px; fill: rgb(246, 163, 59); fill-opacity: 1;"/><path class="point" transform="translate(207.02,778.76)" d="M3,0A3,3 0 1,1 0,-3A3,3 0 0,1 3,0Z" style="opacity: 1; stroke-width: 0px; fill: rgb(246, 163, 59); fill-opacity: 1;"/><path class="point" transform="translate(209.76,782.94)" d="M3,0A3,3 0 1,1 0,-3A3,3 0 0,1 3,0Z" style="opacity: 1; stroke-width: 0px; fill: rgb(246, 163, 59); fill-opacity: 1;"/><path class="point" transform="translate(211.13,785.82)" d="M3,0A3,3 0 1,1 0,-3A3,3 0 0,1 3,0Z" style="opacity: 1; stroke-width: 0px; fill: rgb(246, 163, 59); fill-opacity: 1;"/><path class="point" transform="translate(242.65,778.89)" d="M3,0A3,3 0 1,1 0,-3A3,3 0 0,1 3,0Z" style="opacity: 1; stroke-width: 0px; fill: rgb(246, 163, 59); fill-opacity: 1;"/><path class="point" transform="translate(341.32,782.78)" d="M3,0A3,3 0 1,1 0,-3A3,3 0 0,1 3,0Z" style="opacity: 1; stroke-width: 0px; fill: rgb(246, 163, 59); fill-opacity: 1;"/><path class="point" transform="translate(404.37,777.12)" d="M3,0A3,3 0 1,1 0,-3A3,3 0 0,1 3,0Z" style="opacity: 1; stroke-width: 0px; fill: rgb(246, 163, 59); fill-opacity: 1;"/><path class="point" transform="translate(434.52,786.05)" d="M3,0A3,3 0 1,1 0,-3A3,3 0 0,1 3,0Z" style="opacity: 1; stroke-width: 0px; fill: rgb(246, 163, 59); fill-opacity: 1;"/><path class="point" transform="translate(437.26,783.72)" d="M3,0A3,3 0 1,1 0,-3A3,3 0 0,1 3,0Z" style="opacity: 1; stroke-width: 0px; fill: rgb(246, 163, 59); fill-opacity: 1;"/><path class="point" transform="translate(438.63,776.29)" d="M3,0A3,3 0 1,1 0,-3A3,3 0 0,1 3,0Z" style="opacity: 1; stroke-width: 0px; fill: rgb(246, 163, 59); fill-opacity: 1;"/><path class="point" transform="translate(508.52,782.15)" d="M3,0A3,3 0 1,1 0,-3A3,3 0 0,1 3,0Z" style="opacity: 1; stroke-width: 0px; fill: rgb(246, 163, 59); fill-opacity: 1;"/><path class="point" transform="translate(563.34,785.94)" d="M3,0A3,3 0 1,1 0,-3A3,3 0 0,1 3,0Z" style="opacity: 1; stroke-width: 0px; fill: rgb(246, 163, 59); fill-opacity: 1;"/></g></g></g></g></g><g class="zerolinelayer-above"/><path class="xlines-above crisp" d="M165,906.5H1540" style="fill: none; stroke-width: 3px; stroke: rgb(204, 204, 204); stroke-opacity: 1;"/><path class="ylines-above crisp" d="M166.5,100V905" style="fill: none; stroke-width: 3px; stroke: rgb(204, 204, 204); stroke-opacity: 1;"/><g class="overlines-above"/><g class="xaxislayer-above"><g class="xtick"><text text-anchor="middle" x="0" y="941.6" transform="translate(357.2,0)" style="font-family: 'Helvetica Neue'; font-size: 28px; fill: rgb(42, 63, 95); fill-opacity: 1; white-space: pre;">0</text></g><g class="xtick"><text text-anchor="middle" x="0" y="941.6" style="font-family: 'Helvetica Neue'; font-size: 28px; fill: rgb(42, 63, 95); fill-opacity: 1; white-space: pre;" transform="translate(631.3,0)">2</text></g><g class="xtick"><text text-anchor="middle" x="0" y="941.6" style="font-family: 'Helvetica Neue'; font-size: 28px; fill: rgb(42, 63, 95); fill-opacity: 1; white-space: pre;" transform="translate(905.39,0)">4</text></g><g class="xtick"><text text-anchor="middle" x="0" y="941.6" style="font-family: 'Helvetica Neue'; font-size: 28px; fill: rgb(42, 63, 95); fill-opacity: 1; white-space: pre;" transform="translate(1179.49,0)">6</text></g><g class="xtick"><text text-anchor="middle" x="0" y="941.6" style="font-family: 'Helvetica Neue'; font-size: 28px; fill: rgb(42, 63, 95); fill-opacity: 1; white-space: pre;" transform="translate(1453.58,0)">8</text></g></g><g class="yaxislayer-above"><g class="ytick"><text text-anchor="end" x="159.4" y="9.799999999999999" transform="translate(0,821.8)" style="font-family: 'Helvetica Neue'; font-size: 28px; fill: rgb(42, 63, 95); fill-opacity: 1; white-space: pre;">NaOtBu</text></g><g class="ytick"><text text-anchor="end" x="159.4" y="9.799999999999999" transform="translate(0,661.4)" style="font-family: 'Helvetica Neue'; font-size: 28px; fill: rgb(42, 63, 95); fill-opacity: 1; white-space: pre;">K3PO4</text></g><g class="ytick"><text text-anchor="end" x="159.4" y="9.799999999999999" transform="translate(0,501)" style="font-family: 'Helvetica Neue'; font-size: 28px; fill: rgb(42, 63, 95); fill-opacity: 1; white-space: pre;">KHMDS</text></g><g class="ytick"><text text-anchor="end" x="159.4" y="9.799999999999999" transform="translate(0,340.6)" style="font-family: 'Helvetica Neue'; font-size: 28px; fill: rgb(42, 63, 95); fill-opacity: 1; white-space: pre;">DBU</text></g><g class="ytick"><text text-anchor="end" x="159.4" y="9.799999999999999" transform="translate(0,180.2)" style="font-family: 'Helvetica Neue'; font-size: 28px; fill: rgb(42, 63, 95); fill-opacity: 1; white-space: pre;">Cs2CO3</text></g></g><g class="overaxes-above"/></g></g><g class="polarlayer"/><g class="smithlayer"/><g class="ternarylayer"/><g class="geolayer"/><g class="funnelarealayer"/><g class="pielayer"/><g class="iciclelayer"/><g class="treemaplayer"/><g class="sunburstlayer"/><g class="glimages"/><defs id="topdefs-d9f669"><g class="clips"/></defs><g class="layer-above"><g class="imagelayer"/><g class="shapelayer"/></g><g class="infolayer"><g class="g-gtitle"><text class="gtitle" x="80" y="50" text-anchor="start" dy="0em" style="opacity: 1; font-family: 'Helvetica Neue'; font-size: 48px; fill: rgb(29, 29, 31); fill-opacity: 1; white-space: pre;">Buchwald-Hartwig - RNH2 - Boxplot of z-Score by Base</text></g><g class="g-xtitle"><text class="xtitle" x="854" y="986.299609375" text-anchor="middle" style="opacity: 1; font-family: 'Helvetica Neue'; font-size: 36px; fill: rgb(42, 63, 95); fill-opacity: 1; white-space: pre;">z-Score</text></g><g class="g-ytitle" transform="translate(7.55859375,0)"><text class="ytitle" transform="rotate(-90,26.441015625000006,502.5)" x="26.441015625000006" y="502.5" text-anchor="middle" style="opacity: 1; font-family: 'Helvetica Neue'; font-size: 36px; fill: rgb(42, 63, 95); fill-opacity: 1; white-space: pre;">Base</text></g></g></svg>