<svg class="main-svg" xmlns="http://www.w3.org/2000/svg" xmlns:xlink="http://www.w3.org/1999/xlink" width="1600" height="1000" style="" viewBox="0 0 1600 1000"><rect x="0" y="0" width="1600" height="1000" style="fill: rgb(255, 255, 255); fill-opacity: 1;"/><defs id="defs-91df7e"><g class="clips"><clipPath id="clip91df7exyplot" class="plotclip"><rect width="1371" height="805"/></clipPath><clipPath class="axesclip" id="clip91df7ex"><rect x="169" y="0" width="1371" height="1000"/></clipPath><clipPath class="axesclip" id="clip91df7ey"><rect x="0" y="100" width="1600" height="805"/></clipPath><clipPath class="axesclip" id="clip91df7exy"><rect x="169" y="100" width="1371" height="805"/></clipPath></g><g class="gradients"/><g class="patterns"/></defs><g class="bglayer"/><g class="layer-below"><g class="imagelayer"/><g class="shapelayer"/></g><g class="cartesianlayer"><g class="subplot xy"><g class="layer-subplot"><g class="shapelayer"/><g class="imagelayer"/></g><g class="minor-gridlayer"><g class="x"/><g class="y"/></g><g class="gridlayer"><g class="x"><path class="xgrid crisp" transform="translate(400.77,0)" d="M0,100v805" style="stroke: rgb(208, 208, 208); stroke-opacity: 1; stroke-width: 2px;"/><path class="xgrid crisp" transform="translate(789.4,0)" d="M0,100v805" style="stroke: rgb(208, 208, 208); stroke-opacity: 1; stroke-width: 2px;"/><path class="xgrid crisp" transform="translate(1178.03,0)" d="M0,100v805" style="stroke: rgb(208, 208, 208); stroke-opacity: 1; stroke-width: 2px;"/></g><g class="y"/></g><g class="zerolinelayer"/><g class="layer-between"><g class="shapelayer"/><g class="imagelayer"/></g><path class="xlines-below"/><path class="ylines-below"/><g class="overlines-below"/><g class="xaxislayer-below"/><g class="yaxislayer-below"/><g class="overaxes-below"/><g class="overplot"><g class="xy" transform="translate(169,100)" clip-path="url(#clip91df7exyplot)"><g class="boxlayer mlayer"><g class="trace boxes" style="opacity: 1;"><path class="box" d="M682.59,99.58V34.08M525.68,99.58V34.08H767.11V99.58ZM525.68,66.83H284.24M767.11,66.83H892.45M284.24,83.21V50.46M892.45,83.21V50.46" style="vector-effect: none; stroke-width: 2px; stroke: rgb(204, 85, 0); stroke-opacity: 1; fill: rgb(204, 85, 0); fill-opacity: 0.5;"/><g class="points"><path class="point" transform="translate(105.47,112.93)" d="M3,0A3,3 0 1,1 0,-3A3,3 0 0,1 3,0Z" style="opacity: 1; stroke-width: 0px; fill: rgb(204, 85, 0); fill-opacity: 1;"/><path class="point" transform="translate(113.24,119.91)" d="M3,0A3,3 0 1,1 0,-3A3,3 0 0,1 3,0Z" style="opacity: 1; stroke-width: 0px; fill: rgb(204, 85, 0); fill-opacity: 1;"/><path class="point" transform="translate(132.67,112.39)" d="M3,0A3,3 0 1,1 0,-3A3,3 0 0,1 3,0Z" style="opacity: 1; stroke-width: 0px; fill: rgb(204, 85, 0); fill-opacity: 1;"/><path class="point" transform="translate(134.62,120.09)" d="M3,0A3,3 0 1,1 0,-3A3,3 0 0,1 3,0Z" style="opacity: 1; stroke-width: 0px; fill: rgb(204, 85, 0); fill-opacity: 1;"/><path class="point" transform="translate(284.24,117.18)" d="M3,0A3,3 0 1,1 0,-3A3,3 0 0,1 3,0Z" style="opacity: 1; stroke-width: 0px; fill: rgb(204, 85, 0); fill-opacity: 1;"/><path class="point" transform="translate(290.07,113.21)" d="M3,0A3,3 0 1,1 0,-3A3,3 0 0,1 3,0Z" style="opacity: 1; stroke-width: 0px; fill: rgb(204, 85, 0); fill-opacity: 1;"/><path class="point" transform="translate(301.73,116.15)" d="M3,0A3,3 0 1,1 0,-3A3,3 0 0,1 3,0Z" style="opacity: 1; stroke-width: 0px; fill: rgb(204, 85, 0); fill-opacity: 1;"/><path class="point" transform="translate(521.3,114.42)" d="M3,0A3,3 0 1,1 0,-3A3,3 0 0,1 3,0Z" style="opacity: 1; stroke-width: 0px; fill: rgb(204, 85, 0); fill-opacity: 1;"/><path class="point" transform="translate(527.13,117.61)" d="M3,0A3,3 0 1,1 0,-3A3,3 0 0,1 3,0Z" style="opacity: 1; stroke-width: 0px; fill: rgb(204, 85, 0); fill-opacity: 1;"/><path class="point" transform="translate(560.17,120.45)" d="M3,0A3,3 0 1,1 0,-3A3,3 0 0,1 3,0Z" style="opacity: 1; stroke-width: 0px; fill: rgb(204, 85, 0); fill-opacity: 1;"/><path class="point" transform="translate(564.05,114.37)" d="M3,0A3,3 0 1,1 0,-3A3,3 0 0,1 3,0Z" style="opacity: 1; stroke-width: 0px; fill: rgb(204, 85, 0); fill-opacity: 1;"/><path class="point" transform="translate(567.94,117.85)" d="M3,0A3,3 0 1,1 0,-3A3,3 0 0,1 3,0Z" style="opacity: 1; stroke-width: 0px; fill: rgb(204, 85, 0); fill-opacity: 1;"/><path class="point" transform="translate(577.66,110.64)" d="M3,0A3,3 0 1,1 0,-3A3,3 0 0,1 3,0Z" style="opacity: 1; stroke-width: 0px; fill: rgb(204, 85, 0); fill-opacity: 1;"/><path class="point" transform="translate(600.97,123.9)" d="M3,0A3,3 0 1,1 0,-3A3,3 0 0,1 3,0Z" style="opacity: 1; stroke-width: 0px; fill: rgb(204, 85, 0); fill-opacity: 1;"/><path class="point" transform="translate(618.46,120.94)" d="M3,0A3,3 0 1,1 0,-3A3,3 0 0,1 3,0Z" style="opacity: 1; stroke-width: 0px; fill: rgb(204, 85, 0); fill-opacity: 1;"/><path class="point" transform="translate(647.61,108.46)" d="M3,0A3,3 0 1,1 0,-3A3,3 0 0,1 3,0Z" style="opacity: 1; stroke-width: 0px; fill: rgb(204, 85, 0); fill-opacity: 1;"/><path class="point" transform="translate(682.59,118.07)" d="M3,0A3,3 0 1,1 0,-3A3,3 0 0,1 3,0Z" style="opacity: 1; stroke-width: 0px; fill: rgb(204, 85, 0); fill-opacity: 1;"/><path class="point" transform="translate(700.07,123.15)" d="M3,0A3,3 0 1,1 0,-3A3,3 0 0,1 3,0Z" style="opacity: 1; stroke-width: 0px; fill: rgb(204, 85, 0); fill-opacity: 1;"/><path class="point" transform="translate(715.62,118.91)" d="M3,0A3,3 0 1,1 0,-3A3,3 0 0,1 3,0Z" style="opacity: 1; stroke-width: 0px; fill: rgb(204, 85, 0); fill-opacity: 1;"/><path class="point" transform="translate(729.22,116.16)" d="M3,0A3,3 0 1,1 0,-3A3,3 0 0,1 3,0Z" style="opacity: 1; stroke-width: 0px; fill: rgb(204, 85, 0); fill-opacity: 1;"/><path class="point" transform="translate(738.94,111.69)" d="M3,0A3,3 0 1,1 0,-3A3,3 0 0,1 3,0Z" style="opacity: 1; stroke-width: 0px; fill: rgb(204, 85, 0); fill-opacity: 1;"/><path class="point" transform="translate(744.77,114.86)" d="M3,0A3,3 0 1,1 0,-3A3,3 0 0,1 3,0Z" style="opacity: 1; stroke-width: 0px; fill: rgb(204, 85, 0); fill-opacity: 1;"/><path class="point" transform="translate(756.42,118.49)" d="M3,0A3,3 0 1,1 0,-3A3,3 0 0,1 3,0Z" style="opacity: 1; stroke-width: 0px; fill: rgb(204, 85, 0); fill-opacity: 1;"/><path class="point" transform="translate(758.37,123.16)" d="M3,0A3,3 0 1,1 0,-3A3,3 0 0,1 3,0Z" style="opacity: 1; stroke-width: 0px; fill: rgb(204, 85, 0); fill-opacity: 1;"/><path class="point" transform="translate(760.31,115.98)" d="M3,0A3,3 0 1,1 0,-3A3,3 0 0,1 3,0Z" style="opacity: 1; stroke-width: 0px; fill: rgb(204, 85, 0); fill-opacity: 1;"/><path class="point" transform="translate(787.52,117.51)" d="M3,0A3,3 0 1,1 0,-3A3,3 0 0,1 3,0Z" style="opacity: 1; stroke-width: 0px; fill: rgb(204, 85, 0); fill-opacity: 1;"/><path class="point" transform="translate(812.78,113.69)" d="M3,0A3,3 0 1,1 0,-3A3,3 0 0,1 3,0Z" style="opacity: 1; stroke-width: 0px; fill: rgb(204, 85, 0); fill-opacity: 1;"/><path class="point" transform="translate(855.53,116.39)" d="M3,0A3,3 0 1,1 0,-3A3,3 0 0,1 3,0Z" style="opacity: 1; stroke-width: 0px; fill: rgb(204, 85, 0); fill-opacity: 1;"/><path class="point" transform="translate(884.67,118.98)" d="M3,0A3,3 0 1,1 0,-3A3,3 0 0,1 3,0Z" style="opacity: 1; stroke-width: 0px; fill: rgb(204, 85, 0); fill-opacity: 1;"/><path class="point" transform="translate(892.45,120.03)" d="M3,0A3,3 0 1,1 0,-3A3,3 0 0,1 3,0Z" style="opacity: 1; stroke-width: 0px; fill: rgb(204, 85, 0); fill-opacity: 1;"/><path class="point" transform="translate(1181.97,113.59)" d="M3,0A3,3 0 1,1 0,-3A3,3 0 0,1 3,0Z" style="opacity: 1; stroke-width: 0px; fill: rgb(204, 85, 0); fill-opacity: 1;"/><path class="point" transform="translate(1277.19,119.36)" d="M3,0A3,3 0 1,1 0,-3A3,3 0 0,1 3,0Z" style="opacity: 1; stroke-width: 0px; fill: rgb(204, 85, 0); fill-opacity: 1;"/><path class="point" transform="translate(1286.9,113.69)" d="M3,0A3,3 0 1,1 0,-3A3,3 0 0,1 3,0Z" style="opacity: 1; stroke-width: 0px; fill: rgb(204, 85, 0); fill-opacity: 1;"/></g></g><g class="trace boxes" style="opacity: 1;"><path class="box" d="M555.31,233.25V167.75M299.78,233.25V167.75H684.53V233.25ZM299.78,200.5H214.29M684.53,200.5H886.62M214.29,216.87V184.13M886.62,216.87V184.13" style="vector-effect: none; stroke-width: 2px; stroke: rgb(212, 100, 11); stroke-opacity: 1; fill: rgb(212, 100, 11); fill-opacity: 0.5;"/><g class="points"><path class="point" transform="translate(214.29,245.21)" d="M3,0A3,3 0 1,1 0,-3A3,3 0 0,1 3,0Z" style="opacity: 1; stroke-width: 0px; fill: rgb(212, 100, 11); fill-opacity: 1;"/><path class="point" transform="translate(257.04,255.42)" d="M3,0A3,3 0 1,1 0,-3A3,3 0 0,1 3,0Z" style="opacity: 1; stroke-width: 0px; fill: rgb(212, 100, 11); fill-opacity: 1;"/><path class="point" transform="translate(272.58,242.18)" d="M3,0A3,3 0 1,1 0,-3A3,3 0 0,1 3,0Z" style="opacity: 1; stroke-width: 0px; fill: rgb(212, 100, 11); fill-opacity: 1;"/><path class="point" transform="translate(278.41,254.79)" d="M3,0A3,3 0 1,1 0,-3A3,3 0 0,1 3,0Z" style="opacity: 1; stroke-width: 0px; fill: rgb(212, 100, 11); fill-opacity: 1;"/><path class="point" transform="translate(280.35,251.19)" d="M3,0A3,3 0 1,1 0,-3A3,3 0 0,1 3,0Z" style="opacity: 1; stroke-width: 0px; fill: rgb(212, 100, 11); fill-opacity: 1;"/><path class="point" transform="translate(292.01,246.29)" d="M3,0A3,3 0 1,1 0,-3A3,3 0 0,1 3,0Z" style="opacity: 1; stroke-width: 0px; fill: rgb(212, 100, 11); fill-opacity: 1;"/><path class="point" transform="translate(295.9,249.86)" d="M3,0A3,3 0 1,1 0,-3A3,3 0 0,1 3,0Z" style="opacity: 1; stroke-width: 0px; fill: rgb(212, 100, 11); fill-opacity: 1;"/><path class="point" transform="translate(299.78,247.72)" d="M3,0A3,3 0 1,1 0,-3A3,3 0 0,1 3,0Z" style="opacity: 1; stroke-width: 0px; fill: rgb(212, 100, 11); fill-opacity: 1;"/><path class="point" transform="translate(455.24,251.7)" d="M3,0A3,3 0 1,1 0,-3A3,3 0 0,1 3,0Z" style="opacity: 1; stroke-width: 0px; fill: rgb(212, 100, 11); fill-opacity: 1;"/><path class="point" transform="translate(463.01,254.32)" d="M3,0A3,3 0 1,1 0,-3A3,3 0 0,1 3,0Z" style="opacity: 1; stroke-width: 0px; fill: rgb(212, 100, 11); fill-opacity: 1;"/><path class="point" transform="translate(494.1,247.88)" d="M3,0A3,3 0 1,1 0,-3A3,3 0 0,1 3,0Z" style="opacity: 1; stroke-width: 0px; fill: rgb(212, 100, 11); fill-opacity: 1;"/><path class="point" transform="translate(532.96,251.7)" d="M3,0A3,3 0 1,1 0,-3A3,3 0 0,1 3,0Z" style="opacity: 1; stroke-width: 0px; fill: rgb(212, 100, 11); fill-opacity: 1;"/><path class="point" transform="translate(532.96,245.59)" d="M3,0A3,3 0 1,1 0,-3A3,3 0 0,1 3,0Z" style="opacity: 1; stroke-width: 0px; fill: rgb(212, 100, 11); fill-opacity: 1;"/><path class="point" transform="translate(544.62,258.88)" d="M3,0A3,3 0 1,1 0,-3A3,3 0 0,1 3,0Z" style="opacity: 1; stroke-width: 0px; fill: rgb(212, 100, 11); fill-opacity: 1;"/><path class="point" transform="translate(554.34,254.92)" d="M3,0A3,3 0 1,1 0,-3A3,3 0 0,1 3,0Z" style="opacity: 1; stroke-width: 0px; fill: rgb(212, 100, 11); fill-opacity: 1;"/><path class="point" transform="translate(556.28,240.93)" d="M3,0A3,3 0 1,1 0,-3A3,3 0 0,1 3,0Z" style="opacity: 1; stroke-width: 0px; fill: rgb(212, 100, 11); fill-opacity: 1;"/><path class="point" transform="translate(577.66,251.94)" d="M3,0A3,3 0 1,1 0,-3A3,3 0 0,1 3,0Z" style="opacity: 1; stroke-width: 0px; fill: rgb(212, 100, 11); fill-opacity: 1;"/><path class="point" transform="translate(577.66,257.02)" d="M3,0A3,3 0 1,1 0,-3A3,3 0 0,1 3,0Z" style="opacity: 1; stroke-width: 0px; fill: rgb(212, 100, 11); fill-opacity: 1;"/><path class="point" transform="translate(579.6,252.57)" d="M3,0A3,3 0 1,1 0,-3A3,3 0 0,1 3,0Z" style="opacity: 1; stroke-width: 0px; fill: rgb(212, 100, 11); fill-opacity: 1;"/><path class="point" transform="translate(597.09,249.8)" d="M3,0A3,3 0 1,1 0,-3A3,3 0 0,1 3,0Z" style="opacity: 1; stroke-width: 0px; fill: rgb(212, 100, 11); fill-opacity: 1;"/><path class="point" transform="translate(610.69,246.07)" d="M3,0A3,3 0 1,1 0,-3A3,3 0 0,1 3,0Z" style="opacity: 1; stroke-width: 0px; fill: rgb(212, 100, 11); fill-opacity: 1;"/><path class="point" transform="translate(665.1,248.75)" d="M3,0A3,3 0 1,1 0,-3A3,3 0 0,1 3,0Z" style="opacity: 1; stroke-width: 0px; fill: rgb(212, 100, 11); fill-opacity: 1;"/><path class="point" transform="translate(684.53,251.8)" d="M3,0A3,3 0 1,1 0,-3A3,3 0 0,1 3,0Z" style="opacity: 1; stroke-width: 0px; fill: rgb(212, 100, 11); fill-opacity: 1;"/><path class="point" transform="translate(686.47,254.68)" d="M3,0A3,3 0 1,1 0,-3A3,3 0 0,1 3,0Z" style="opacity: 1; stroke-width: 0px; fill: rgb(212, 100, 11); fill-opacity: 1;"/><path class="point" transform="translate(711.73,249.63)" d="M3,0A3,3 0 1,1 0,-3A3,3 0 0,1 3,0Z" style="opacity: 1; stroke-width: 0px; fill: rgb(212, 100, 11); fill-opacity: 1;"/><path class="point" transform="translate(736.99,250.74)" d="M3,0A3,3 0 1,1 0,-3A3,3 0 0,1 3,0Z" style="opacity: 1; stroke-width: 0px; fill: rgb(212, 100, 11); fill-opacity: 1;"/><path class="point" transform="translate(762.25,247.87)" d="M3,0A3,3 0 1,1 0,-3A3,3 0 0,1 3,0Z" style="opacity: 1; stroke-width: 0px; fill: rgb(212, 100, 11); fill-opacity: 1;"/><path class="point" transform="translate(766.14,249.94)" d="M3,0A3,3 0 1,1 0,-3A3,3 0 0,1 3,0Z" style="opacity: 1; stroke-width: 0px; fill: rgb(212, 100, 11); fill-opacity: 1;"/><path class="point" transform="translate(886.62,251.79)" d="M3,0A3,3 0 1,1 0,-3A3,3 0 0,1 3,0Z" style="opacity: 1; stroke-width: 0px; fill: rgb(212, 100, 11); fill-opacity: 1;"/><path class="point" transform="translate(1302.45,252.5)" d="M3,0A3,3 0 1,1 0,-3A3,3 0 0,1 3,0Z" style="opacity: 1; stroke-width: 0px; fill: rgb(212, 100, 11); fill-opacity: 1;"/></g></g><g class="trace boxes" style="opacity: 1;"><path class="box" d="M538.79,366.92V301.42M353.22,366.92V301.42H753.02V366.92ZM353.22,334.17H161.82M753.02,334.17H828.32M161.82,350.54V317.79M828.32,350.54V317.79" style="vector-effect: none; stroke-width: 2px; stroke: rgb(255, 179, 71); stroke-opacity: 1; fill: rgb(255, 179, 71); fill-opacity: 0.5;"/><g class="points"><path class="point" transform="translate(161.82,379.61)" d="M3,0A3,3 0 1,1 0,-3A3,3 0 0,1 3,0Z" style="opacity: 1; stroke-width: 0px; fill: rgb(255, 179, 71); fill-opacity: 1;"/><path class="point" transform="translate(171.54,387.69)" d="M3,0A3,3 0 1,1 0,-3A3,3 0 0,1 3,0Z" style="opacity: 1; stroke-width: 0px; fill: rgb(255, 179, 71); fill-opacity: 1;"/><path class="point" transform="translate(280.35,378.32)" d="M3,0A3,3 0 1,1 0,-3A3,3 0 0,1 3,0Z" style="opacity: 1; stroke-width: 0px; fill: rgb(255, 179, 71); fill-opacity: 1;"/><path class="point" transform="translate(377.51,388.92)" d="M3,0A3,3 0 1,1 0,-3A3,3 0 0,1 3,0Z" style="opacity: 1; stroke-width: 0px; fill: rgb(255, 179, 71); fill-opacity: 1;"/><path class="point" transform="translate(455.24,384.96)" d="M3,0A3,3 0 1,1 0,-3A3,3 0 0,1 3,0Z" style="opacity: 1; stroke-width: 0px; fill: rgb(255, 179, 71); fill-opacity: 1;"/><path class="point" transform="translate(461.07,379.59)" d="M3,0A3,3 0 1,1 0,-3A3,3 0 0,1 3,0Z" style="opacity: 1; stroke-width: 0px; fill: rgb(255, 179, 71); fill-opacity: 1;"/><path class="point" transform="translate(538.79,383.54)" d="M3,0A3,3 0 1,1 0,-3A3,3 0 0,1 3,0Z" style="opacity: 1; stroke-width: 0px; fill: rgb(255, 179, 71); fill-opacity: 1;"/><path class="point" transform="translate(672.87,381.14)" d="M3,0A3,3 0 1,1 0,-3A3,3 0 0,1 3,0Z" style="opacity: 1; stroke-width: 0px; fill: rgb(255, 179, 71); fill-opacity: 1;"/><path class="point" transform="translate(703.96,385.76)" d="M3,0A3,3 0 1,1 0,-3A3,3 0 0,1 3,0Z" style="opacity: 1; stroke-width: 0px; fill: rgb(255, 179, 71); fill-opacity: 1;"/><path class="point" transform="translate(748.65,389.17)" d="M3,0A3,3 0 1,1 0,-3A3,3 0 0,1 3,0Z" style="opacity: 1; stroke-width: 0px; fill: rgb(255, 179, 71); fill-opacity: 1;"/><path class="point" transform="translate(766.14,381.27)" d="M3,0A3,3 0 1,1 0,-3A3,3 0 0,1 3,0Z" style="opacity: 1; stroke-width: 0px; fill: rgb(255, 179, 71); fill-opacity: 1;"/><path class="point" transform="translate(828.32,385.88)" d="M3,0A3,3 0 1,1 0,-3A3,3 0 0,1 3,0Z" style="opacity: 1; stroke-width: 0px; fill: rgb(255, 179, 71); fill-opacity: 1;"/><path class="point" transform="translate(828.32,377.06)" d="M3,0A3,3 0 1,1 0,-3A3,3 0 0,1 3,0Z" style="opacity: 1; stroke-width: 0px; fill: rgb(255, 179, 71); fill-opacity: 1;"/></g></g><g class="trace boxes" style="opacity: 1;"><path class="box" d="M260.92,500.58V435.09M115.19,500.58V435.09H670.93V500.58ZM115.19,467.83H91.87M670.93,467.83H845.81M91.87,484.21V451.46M845.81,484.21V451.46" style="vector-effect: none; stroke-width: 2px; stroke: rgb(246, 163, 59); stroke-opacity: 1; fill: rgb(246, 163, 59); fill-opacity: 0.5;"/><g class="points"><path class="point" transform="translate(91.87,512.14)" d="M3,0A3,3 0 1,1 0,-3A3,3 0 0,1 3,0Z" style="opacity: 1; stroke-width: 0px; fill: rgb(246, 163, 59); fill-opacity: 1;"/><path class="point" transform="translate(99.64,523.22)" d="M3,0A3,3 0 1,1 0,-3A3,3 0 0,1 3,0Z" style="opacity: 1; stroke-width: 0px; fill: rgb(246, 163, 59); fill-opacity: 1;"/><path class="point" transform="translate(99.64,509.44)" d="M3,0A3,3 0 1,1 0,-3A3,3 0 0,1 3,0Z" style="opacity: 1; stroke-width: 0px; fill: rgb(246, 163, 59); fill-opacity: 1;"/><path class="point" transform="translate(107.41,525.07)" d="M3,0A3,3 0 1,1 0,-3A3,3 0 0,1 3,0Z" style="opacity: 1; stroke-width: 0px; fill: rgb(246, 163, 59); fill-opacity: 1;"/><path class="point" transform="translate(115.19,518.84)" d="M3,0A3,3 0 1,1 0,-3A3,3 0 0,1 3,0Z" style="opacity: 1; stroke-width: 0px; fill: rgb(246, 163, 59); fill-opacity: 1;"/><path class="point" transform="translate(173.48,512.9)" d="M3,0A3,3 0 1,1 0,-3A3,3 0 0,1 3,0Z" style="opacity: 1; stroke-width: 0px; fill: rgb(246, 163, 59); fill-opacity: 1;"/><path class="point" transform="translate(179.31,517.23)" d="M3,0A3,3 0 1,1 0,-3A3,3 0 0,1 3,0Z" style="opacity: 1; stroke-width: 0px; fill: rgb(246, 163, 59); fill-opacity: 1;"/><path class="point" transform="translate(196.8,515.48)" d="M3,0A3,3 0 1,1 0,-3A3,3 0 0,1 3,0Z" style="opacity: 1; stroke-width: 0px; fill: rgb(246, 163, 59); fill-opacity: 1;"/><path class="point" transform="translate(214.29,518.55)" d="M3,0A3,3 0 1,1 0,-3A3,3 0 0,1 3,0Z" style="opacity: 1; stroke-width: 0px; fill: rgb(246, 163, 59); fill-opacity: 1;"/><path class="point" transform="translate(307.56,520.59)" d="M3,0A3,3 0 1,1 0,-3A3,3 0 0,1 3,0Z" style="opacity: 1; stroke-width: 0px; fill: rgb(246, 163, 59); fill-opacity: 1;"/><path class="point" transform="translate(326.99,515.57)" d="M3,0A3,3 0 1,1 0,-3A3,3 0 0,1 3,0Z" style="opacity: 1; stroke-width: 0px; fill: rgb(246, 163, 59); fill-opacity: 1;"/><path class="point" transform="translate(350.31,518.63)" d="M3,0A3,3 0 1,1 0,-3A3,3 0 0,1 3,0Z" style="opacity: 1; stroke-width: 0px; fill: rgb(246, 163, 59); fill-opacity: 1;"/><path class="point" transform="translate(641.78,514)" d="M3,0A3,3 0 1,1 0,-3A3,3 0 0,1 3,0Z" style="opacity: 1; stroke-width: 0px; fill: rgb(246, 163, 59); fill-opacity: 1;"/><path class="point" transform="translate(670.93,521.31)" d="M3,0A3,3 0 1,1 0,-3A3,3 0 0,1 3,0Z" style="opacity: 1; stroke-width: 0px; fill: rgb(246, 163, 59); fill-opacity: 1;"/><path class="point" transform="translate(688.41,519.6)" d="M3,0A3,3 0 1,1 0,-3A3,3 0 0,1 3,0Z" style="opacity: 1; stroke-width: 0px; fill: rgb(246, 163, 59); fill-opacity: 1;"/><path class="point" transform="translate(696.19,513.1)" d="M3,0A3,3 0 1,1 0,-3A3,3 0 0,1 3,0Z" style="opacity: 1; stroke-width: 0px; fill: rgb(246, 163, 59); fill-opacity: 1;"/><path class="point" transform="translate(723.39,517.99)" d="M3,0A3,3 0 1,1 0,-3A3,3 0 0,1 3,0Z" style="opacity: 1; stroke-width: 0px; fill: rgb(246, 163, 59); fill-opacity: 1;"/><path class="point" transform="translate(845.81,522)" d="M3,0A3,3 0 1,1 0,-3A3,3 0 0,1 3,0Z" style="opacity: 1; stroke-width: 0px; fill: rgb(246, 163, 59); fill-opacity: 1;"/></g></g><g class="trace boxes" style="opacity: 1;"><path class="box" d="M200.68,634.25V568.75M118.1,634.25V568.75H555.31V634.25ZM118.1,601.5H101.58M555.31,601.5H1183.92M101.58,617.87V585.13M1183.92,617.87V585.13" style="vector-effect: none; stroke-width: 2px; stroke: rgb(238, 147, 47); stroke-opacity: 1; fill: rgb(238, 147, 47); fill-opacity: 0.5;"/><g class="points"><path class="point" transform="translate(101.58,645.52)" d="M3,0A3,3 0 1,1 0,-3A3,3 0 0,1 3,0Z" style="opacity: 1; stroke-width: 0px; fill: rgb(238, 147, 47); fill-opacity: 1;"/><path class="point" transform="translate(113.24,656.2)" d="M3,0A3,3 0 1,1 0,-3A3,3 0 0,1 3,0Z" style="opacity: 1; stroke-width: 0px; fill: rgb(238, 147, 47); fill-opacity: 1;"/><path class="point" transform="translate(115.19,643.29)" d="M3,0A3,3 0 1,1 0,-3A3,3 0 0,1 3,0Z" style="opacity: 1; stroke-width: 0px; fill: rgb(238, 147, 47); fill-opacity: 1;"/><path class="point" transform="translate(115.19,658.93)" d="M3,0A3,3 0 1,1 0,-3A3,3 0 0,1 3,0Z" style="opacity: 1; stroke-width: 0px; fill: rgb(238, 147, 47); fill-opacity: 1;"/><path class="point" transform="translate(115.19,652.21)" d="M3,0A3,3 0 1,1 0,-3A3,3 0 0,1 3,0Z" style="opacity: 1; stroke-width: 0px; fill: rgb(238, 147, 47); fill-opacity: 1;"/><path class="point" transform="translate(119.07,647.2)" d="M3,0A3,3 0 1,1 0,-3A3,3 0 0,1 3,0Z" style="opacity: 1; stroke-width: 0px; fill: rgb(238, 147, 47); fill-opacity: 1;"/><path class="point" transform="translate(134.62,650.86)" d="M3,0A3,3 0 1,1 0,-3A3,3 0 0,1 3,0Z" style="opacity: 1; stroke-width: 0px; fill: rgb(238, 147, 47); fill-opacity: 1;"/><path class="point" transform="translate(134.62,649.66)" d="M3,0A3,3 0 1,1 0,-3A3,3 0 0,1 3,0Z" style="opacity: 1; stroke-width: 0px; fill: rgb(238, 147, 47); fill-opacity: 1;"/><path class="point" transform="translate(134.62,651.68)" d="M3,0A3,3 0 1,1 0,-3A3,3 0 0,1 3,0Z" style="opacity: 1; stroke-width: 0px; fill: rgb(238, 147, 47); fill-opacity: 1;"/><path class="point" transform="translate(192.91,653.04)" d="M3,0A3,3 0 1,1 0,-3A3,3 0 0,1 3,0Z" style="opacity: 1; stroke-width: 0px; fill: rgb(238, 147, 47); fill-opacity: 1;"/><path class="point" transform="translate(200.68,649.79)" d="M3,0A3,3 0 1,1 0,-3A3,3 0 0,1 3,0Z" style="opacity: 1; stroke-width: 0px; fill: rgb(238, 147, 47); fill-opacity: 1;"/><path class="point" transform="translate(216.23,651.66)" d="M3,0A3,3 0 1,1 0,-3A3,3 0 0,1 3,0Z" style="opacity: 1; stroke-width: 0px; fill: rgb(238, 147, 47); fill-opacity: 1;"/><path class="point" transform="translate(496.04,648.64)" d="M3,0A3,3 0 1,1 0,-3A3,3 0 0,1 3,0Z" style="opacity: 1; stroke-width: 0px; fill: rgb(238, 147, 47); fill-opacity: 1;"/><path class="point" transform="translate(499.93,653.13)" d="M3,0A3,3 0 1,1 0,-3A3,3 0 0,1 3,0Z" style="opacity: 1; stroke-width: 0px; fill: rgb(238, 147, 47); fill-opacity: 1;"/><path class="point" transform="translate(501.87,651.96)" d="M3,0A3,3 0 1,1 0,-3A3,3 0 0,1 3,0Z" style="opacity: 1; stroke-width: 0px; fill: rgb(238, 147, 47); fill-opacity: 1;"/><path class="point" transform="translate(554.34,648.79)" d="M3,0A3,3 0 1,1 0,-3A3,3 0 0,1 3,0Z" style="opacity: 1; stroke-width: 0px; fill: rgb(238, 147, 47); fill-opacity: 1;"/><path class="point" transform="translate(558.22,651.12)" d="M3,0A3,3 0 1,1 0,-3A3,3 0 0,1 3,0Z" style="opacity: 1; stroke-width: 0px; fill: rgb(238, 147, 47); fill-opacity: 1;"/><path class="point" transform="translate(566,652.52)" d="M3,0A3,3 0 1,1 0,-3A3,3 0 0,1 3,0Z" style="opacity: 1; stroke-width: 0px; fill: rgb(238, 147, 47); fill-opacity: 1;"/><path class="point" transform="translate(770.03,651.31)" d="M3,0A3,3 0 1,1 0,-3A3,3 0 0,1 3,0Z" style="opacity: 1; stroke-width: 0px; fill: rgb(238, 147, 47); fill-opacity: 1;"/><path class="point" transform="translate(977.94,650.66)" d="M3,0A3,3 0 1,1 0,-3A3,3 0 0,1 3,0Z" style="opacity: 1; stroke-width: 0px; fill: rgb(238, 147, 47); fill-opacity: 1;"/><path class="point" transform="translate(1183.92,649.8)" d="M3,0A3,3 0 1,1 0,-3A3,3 0 0,1 3,0Z" style="opacity: 1; stroke-width: 0px; fill: rgb(238, 147, 47); fill-opacity: 1;"/></g></g><g class="trace boxes" style="opacity: 1;"><path class="box" d="M142.39,767.92V702.42M119.07,767.92V702.42H191.45V767.92ZM119.07,735.17H68.55M191.45,735.17H262.86M68.55,751.54V718.79M262.86,751.54V718.79" style="vector-effect: none; stroke-width: 2px; stroke: rgb(255, 179, 71); stroke-opacity: 1; fill: rgb(255, 179, 71); fill-opacity: 0.5;"/><g class="points"><path class="point" transform="translate(68.55,780.24)" d="M3,0A3,3 0 1,1 0,-3A3,3 0 0,1 3,0Z" style="opacity: 1; stroke-width: 0px; fill: rgb(255, 179, 71); fill-opacity: 1;"/><path class="point" transform="translate(72.44,789.45)" d="M3,0A3,3 0 1,1 0,-3A3,3 0 0,1 3,0Z" style="opacity: 1; stroke-width: 0px; fill: rgb(255, 179, 71); fill-opacity: 1;"/><path class="point" transform="translate(119.07,777.51)" d="M3,0A3,3 0 1,1 0,-3A3,3 0 0,1 3,0Z" style="opacity: 1; stroke-width: 0px; fill: rgb(255, 179, 71); fill-opacity: 1;"/><path class="point" transform="translate(119.07,792)" d="M3,0A3,3 0 1,1 0,-3A3,3 0 0,1 3,0Z" style="opacity: 1; stroke-width: 0px; fill: rgb(255, 179, 71); fill-opacity: 1;"/><path class="point" transform="translate(119.07,786.61)" d="M3,0A3,3 0 1,1 0,-3A3,3 0 0,1 3,0Z" style="opacity: 1; stroke-width: 0px; fill: rgb(255, 179, 71); fill-opacity: 1;"/><path class="point" transform="translate(134.62,779.73)" d="M3,0A3,3 0 1,1 0,-3A3,3 0 0,1 3,0Z" style="opacity: 1; stroke-width: 0px; fill: rgb(255, 179, 71); fill-opacity: 1;"/><path class="point" transform="translate(142.39,784.59)" d="M3,0A3,3 0 1,1 0,-3A3,3 0 0,1 3,0Z" style="opacity: 1; stroke-width: 0px; fill: rgb(255, 179, 71); fill-opacity: 1;"/><path class="point" transform="translate(142.39,781.44)" d="M3,0A3,3 0 1,1 0,-3A3,3 0 0,1 3,0Z" style="opacity: 1; stroke-width: 0px; fill: rgb(255, 179, 71); fill-opacity: 1;"/><path class="point" transform="translate(146.28,786.68)" d="M3,0A3,3 0 1,1 0,-3A3,3 0 0,1 3,0Z" style="opacity: 1; stroke-width: 0px; fill: rgb(255, 179, 71); fill-opacity: 1;"/><path class="point" transform="translate(150.16,788.31)" d="M3,0A3,3 0 1,1 0,-3A3,3 0 0,1 3,0Z" style="opacity: 1; stroke-width: 0px; fill: rgb(255, 179, 71); fill-opacity: 1;"/><path class="point" transform="translate(175.42,782.86)" d="M3,0A3,3 0 1,1 0,-3A3,3 0 0,1 3,0Z" style="opacity: 1; stroke-width: 0px; fill: rgb(255, 179, 71); fill-opacity: 1;"/><path class="point" transform="translate(196.8,785.98)" d="M3,0A3,3 0 1,1 0,-3A3,3 0 0,1 3,0Z" style="opacity: 1; stroke-width: 0px; fill: rgb(255, 179, 71); fill-opacity: 1;"/><path class="point" transform="translate(202.63,781.24)" d="M3,0A3,3 0 1,1 0,-3A3,3 0 0,1 3,0Z" style="opacity: 1; stroke-width: 0px; fill: rgb(255, 179, 71); fill-opacity: 1;"/><path class="point" transform="translate(262.86,788.65)" d="M3,0A3,3 0 1,1 0,-3A3,3 0 0,1 3,0Z" style="opacity: 1; stroke-width: 0px; fill: rgb(255, 179, 71); fill-opacity: 1;"/><path class="point" transform="translate(387.23,786.68)" d="M3,0A3,3 0 1,1 0,-3A3,3 0 0,1 3,0Z" style="opacity: 1; stroke-width: 0px; fill: rgb(255, 179, 71); fill-opacity: 1;"/></g></g></g></g></g><g class="zerolinelayer-above"/><path class="xlines-above crisp" d="M166,906.5H1540" style="fill: none; stroke-width: 3px; stroke: rgb(204, 204, 204); stroke-opacity: 1;"/><path class="ylines-above crisp" d="M167.5,100V905" style="fill: none; stroke-width: 3px; stroke: rgb(204, 204, 204); stroke-opacity: 1;"/><g class="overlines-above"/><g class="xaxislayer-above"><g class="xtick"><text text-anchor="middle" x="0" y="941.6" transform="translate(400.77,0)" style="font-family: 'Helvetica Neue'; font-size: 28px; fill: rgb(42, 63, 95); fill-opacity: 1; white-space: pre;">0</text></g><g class="xtick"><text text-anchor="middle" x="0" y="941.6" style="font-family: 'Helvetica Neue'; font-size: 28px; fill: rgb(42, 63, 95); fill-opacity: 1; white-space: pre;" transform="translate(789.4,0)">2</text></g><g class="xtick"><text text-anchor="middle" x="0" y="941.6" style="font-family: 'Helvetica Neue'; font-size: 28px; fill: rgb(42, 63, 95); fill-opacity: 1; white-space: pre;" transform="translate(1178.03,0)">4</text></g></g><g class="yaxislayer-above"><g class="ytick"><text text-anchor="end" x="160.4" y="9.799999999999999" transform="translate(0,835.17)" style="font-family: 'Helvetica Neue'; font-size: 28px; fill: rgb(42, 63, 95); fill-opacity: 1; white-space: pre;">Na2CO3</text></g><g class="ytick"><text text-anchor="end" x="160.4" y="9.799999999999999" transform="translate(0,701.5)" style="font-family: 'Helvetica Neue'; font-size: 28px; fill: rgb(42, 63, 95); fill-opacity: 1; white-space: pre;">DBU</text></g><g class="ytick"><text text-anchor="end" x="160.4" y="9.799999999999999" transform="translate(0,567.8299999999999)" style="font-family: 'Helvetica Neue'; font-size: 28px; fill: rgb(42, 63, 95); fill-opacity: 1; white-space: pre;">KOH</text></g><g class="ytick"><text text-anchor="end" x="160.4" y="9.799999999999999" transform="translate(0,434.17)" style="font-family: 'Helvetica Neue'; font-size: 28px; fill: rgb(42, 63, 95); fill-opacity: 1; white-space: pre;">NaOtBu</text></g><g class="ytick"><text text-anchor="end" x="160.4" y="9.799999999999999" transform="translate(0,300.5)" style="font-family: 'Helvetica Neue'; font-size: 28px; fill: rgb(42, 63, 95); fill-opacity: 1; white-space: pre;">K3PO4</text></g><g class="ytick"><text text-anchor="end" x="160.4" y="9.799999999999999" transform="translate(0,166.82999999999998)" style="font-family: 'Helvetica Neue'; font-size: 28px; fill: rgb(42, 63, 95); fill-opacity: 1; white-space: pre;">Cs2CO3</text></g></g><g class="overaxes-above"/></g></g><g class="polarlayer"/><g class="smithlayer"/><g class="ternarylayer"/><g class="geolayer"/><g class="funnelarealayer"/><g class="pielayer"/><g class="iciclelayer"/><g class="treemaplayer"/><g class="sunburstlayer"/><g class="glimages"/><defs id="topdefs-91df7e"><g class="clips"/></defs><g class="layer-above"><g class="imagelayer"/><g class="shapelayer"/></g><g class="infolayer"><g class="g-gtitle"><text class="gtitle" x="80" y="50" text-anchor="start" dy="0em" style="opacity: 1; font-family: 'Helvetica Neue'; font-size: 48px; fill: rgb(29, 29, 31); fill-opacity: 1; white-space: pre;">Arylation, acidic C-H - Boxplot of z-Score by Base</text></g><g class="g-xtitle"><text class="xtitle" x="854.5" y="986.299609375" text-anchor="middle" style="opacity: 1; font-family: 'Helvetica Neue'; font-size: 36px; fill: rgb(42, 63, 95); fill-opacity: 1; white-space: pre;">z-Score</text></g><g class="g-ytitle" transform="translate(7.58984375,0)"><text class="ytitle" transform="rotate(-90,26.409765625000006,502.5)" x="26.409765625000006" y="502.5" text-anchor="middle" style="opacity: 1; font-family: 'Helvetica Neue'; font-size: 36px; fill: rgb(42, 63, 95); fill-opacity: 1; white-space: pre;">Base</text></g></g></svg>